<svg xmlns="http://www.w3.org/2000/svg" width="160" height="53" fill="none" viewBox="0 0 160 53"><path fill="#31cb9e" d="m15.806 26.49 19.686 11.35a1.04 1.04 0 0 0 1.411-.38c.092-.157.142-.334.145-.516l.003-20.903a1.05 1.05 0 0 0-.523-.895 1.04 1.04 0 0 0-1.033-.001zM34.347 10.254 21.28.21a1.043 1.043 0 0 0-1.647.607l-4.778 22.36L34.24 11.986a1.03 1.03 0 0 0 .524-.837 1.04 1.04 0 0 0-.418-.895M21.271 52.785 34.372 42.73a1.045 1.045 0 0 0 .255-1.378 1.04 1.04 0 0 0-.36-.354L14.853 29.815l4.787 22.362a1.03 1.03 0 0 0 .648.759 1.02 1.02 0 0 0 .983-.151"/><path fill="#31cb9e" d="m10.76 26.489 5.156-24.092a1.04 1.04 0 0 0-.462-1.098 1.03 1.03 0 0 0-1.185.065L1.077 11.494a2.74 2.74 0 0 0-1.073 2.187L0 39.338a2.76 2.76 0 0 0 1.072 2.188l13.189 10.119a1.038 1.038 0 0 0 1.578-.418c.084-.193.108-.407.069-.615z"/><path fill="#fff" d="M113.428 19.464a5.3 5.3 0 0 1 2.698.672 5.35 5.35 0 0 1 1.996 1.944l-1.631 1.263a4.35 4.35 0 0 0-1.344-1.308 3.27 3.27 0 0 0-1.72-.466 2.76 2.76 0 0 0-1.543.432 1.49 1.49 0 0 0-.661 1.34c-.007.25.046.497.154.72a1.8 1.8 0 0 0 .419.533q.293.252.639.421l.815.41 1.631.754q.766.35 1.477.798c.408.253.779.563 1.102.92.288.324.519.695.683 1.097.167.43.25.89.243 1.352a4.04 4.04 0 0 1-.376 1.762c-.242.515-.596.969-1.036 1.329-.462.374-.989.659-1.554.842a6 6 0 0 1-1.929.298 6.13 6.13 0 0 1-3.239-.853 6.3 6.3 0 0 1-2.248-2.316l1.653-1.263q.312.47.695.887a5 5 0 0 0 .848.742c.315.218.66.39 1.024.51.403.13.823.193 1.246.188.649.031 1.29-.16 1.818-.542a1.8 1.8 0 0 0 .695-1.495 1.7 1.7 0 0 0-.154-.743 1.7 1.7 0 0 0-.441-.566 4 4 0 0 0-.673-.454 14 14 0 0 0-.87-.432l-1.608-.754q-.681-.318-1.323-.71a5.2 5.2 0 0 1-1.08-.864 3.8 3.8 0 0 1-.727-1.097 3.4 3.4 0 0 1-.264-1.385 3.6 3.6 0 0 1 .364-1.64c.238-.483.577-.91.991-1.251a4.5 4.5 0 0 1 1.456-.798 5.6 5.6 0 0 1 1.774-.277M131.346 30.503l2.8-7.046h2.447l-4.785 11.124h-.794l-3.415-7.27-3.373 7.269h-.794l-4.803-11.126h2.468l2.842 7.115 3.286-7.357h.793zM141.971 23.215a5.4 5.4 0 0 1 1.807.288c.522.18 1 .47 1.399.854.405.4.717.884.915 1.418.232.635.344 1.308.331 1.984l-.001 6.581h-2.161v-1.219a3.9 3.9 0 0 1-1.454 1.075c-.635.267-1.318.399-2.006.387a5.1 5.1 0 0 1-1.554-.222 3.4 3.4 0 0 1-1.19-.643 2.9 2.9 0 0 1-.761-.997 3 3 0 0 1-.264-1.285 2.71 2.71 0 0 1 1.08-2.272 4.65 4.65 0 0 1 2.91-.83h3.063l.001-.709a2.11 2.11 0 0 0-.595-1.729 2.09 2.09 0 0 0-1.72-.598 3.17 3.17 0 0 0-1.652.42 5.6 5.6 0 0 0-1.367 1.197l-1.323-1.374a5.23 5.23 0 0 1 2.007-1.762 5.74 5.74 0 0 1 2.535-.564m-.686 9.573c.369.003.735-.061 1.081-.188.328-.12.63-.3.892-.532.257-.228.464-.507.607-.82.148-.323.223-.675.22-1.03v-.2h-2.777a2.55 2.55 0 0 0-1.422.332 1.12 1.12 0 0 0-.496.997 1.21 1.21 0 0 0 .551 1.075c.402.254.87.381 1.344.366M154.689 23.216a5.2 5.2 0 0 1 2.127.432 5 5 0 0 1 1.686 1.197 5.6 5.6 0 0 1 1.102 1.796A6.2 6.2 0 0 1 160 28.89a6.3 6.3 0 0 1-.397 2.26 5.45 5.45 0 0 1-1.114 1.806 5.13 5.13 0 0 1-3.802 1.628 5.2 5.2 0 0 1-2.061-.399 4 4 0 0 1-1.554-1.153l-.001 5.297h-2.313l.002-14.87h2.138l-.001 1.573c.402-.58.95-1.042 1.588-1.34a5 5 0 0 1 2.204-.476m-.375 2.127a3.5 3.5 0 0 0-1.18.21 3 3 0 0 0-1.047.643 3.2 3.2 0 0 0-.749 1.097 4 4 0 0 0-.287 1.595 4.2 4.2 0 0 0 .275 1.596c.167.417.418.795.739 1.108.299.29.655.513 1.046.654.385.14.792.211 1.202.21a3.3 3.3 0 0 0 1.289-.254 3.2 3.2 0 0 0 1.058-.72 3.3 3.3 0 0 0 .706-1.119 4.3 4.3 0 0 0 .001-2.903 3.4 3.4 0 0 0-.695-1.12 3.222 3.222 0 0 0-2.358-.998M54.302 34.325h-2.336l.002-14.627h2.336zm2.977-7.778L64 34.327l-2.887-.002-6.744-7.779 6.107-6.846h2.866z"/><path fill="#fff" d="M69.136 35.569a5.5 5.5 0 0 1-1.643 2.282 3.84 3.84 0 0 1-2.347.709q-.454-.002-.904-.056a6.5 6.5 0 0 1-.882-.166v-1.973q.397.045.706.067t.595.022c.463.009.921-.098 1.333-.31a2.6 2.6 0 0 0 1.026-1.285l.44-1.02-4.317-10.394h2.49l3.085 7.935 3.22-7.933h2.468zM77.932 24.777a4.3 4.3 0 0 1 1.554-1.152 5 5 0 0 1 2.061-.42 5.11 5.11 0 0 1 3.802 1.629 5.5 5.5 0 0 1 1.113 1.806c.27.723.403 1.49.396 2.26a6.2 6.2 0 0 1-.397 2.25 5.6 5.6 0 0 1-1.102 1.795 5.05 5.05 0 0 1-1.676 1.196 5.1 5.1 0 0 1-2.116.432c-.763.01-1.52-.15-2.215-.466a3.9 3.9 0 0 1-1.598-1.33v1.551h-2.138l.003-16.62h2.314zm3.24.555c-.41 0-.816.07-1.202.21-.39.141-.747.364-1.046.654a3.2 3.2 0 0 0-.739 1.108 4.2 4.2 0 0 0-.276 1.595c-.013.55.084 1.096.287 1.607.169.418.424.796.75 1.108.3.283.656.499 1.045.632.38.131.778.199 1.18.2.45.003.897-.087 1.311-.266a3.2 3.2 0 0 0 1.048-.732 3.4 3.4 0 0 0 .694-1.118 4.3 4.3 0 0 0 .001-2.903 3.3 3.3 0 0 0-.706-1.12c-.3-.31-.66-.555-1.058-.72a3.3 3.3 0 0 0-1.289-.255M94 23.207a5.3 5.3 0 0 1 2.006.377 4.63 4.63 0 0 1 2.622 2.626c.254.63.38 1.304.375 1.984q0 .422-.056.842-.038.315-.12.62l-8.068-.001c.12.827.544 1.58 1.19 2.105a3.63 3.63 0 0 0 2.336.754 4.2 4.2 0 0 0 1.72-.343 5.4 5.4 0 0 0 1.433-.941l1.123 1.595a6.5 6.5 0 0 1-1.94 1.285 6 6 0 0 1-2.38.465 6.2 6.2 0 0 1-2.337-.432 5.4 5.4 0 0 1-1.838-1.185 5.45 5.45 0 0 1-1.224-1.819 5.7 5.7 0 0 1-.441-2.238 5.8 5.8 0 0 1 .43-2.238 5.5 5.5 0 0 1 1.19-1.806 5.7 5.7 0 0 1 1.775-1.207c.696-.3 1.447-.45 2.205-.443m-.067 1.972a3 3 0 0 0-2.027.72 3.43 3.43 0 0 0-1.102 1.939h5.885a2.58 2.58 0 0 0-.849-1.972 2.84 2.84 0 0 0-1.907-.687M106.52 23.342q.25-.002.496.033.21.033.386.078l-.001 2.06h-.705a4 4 0 0 0-1.223.189 2.8 2.8 0 0 0-1.014.564c-.294.26-.527.582-.684.942a3.2 3.2 0 0 0-.254 1.319l-.001 5.806h-2.313l.001-10.881h2.138l-.001 1.463a3.76 3.76 0 0 1 1.401-1.175 4 4 0 0 1 1.774-.398"/></svg>