<svg xmlns="http://www.w3.org/2000/svg" width="100" height="100" fill="none" viewBox="0 0 100 100"><path fill="#000607" fill-rule="evenodd" d="M12.824 74.897v-.003a44.52 44.52 0 0 1-7.561-24.892c0-9.214 2.768-17.715 7.512-24.817a45 45 0 0 1 7.193-8.337 1.37 1.37 0 0 1 1.893.06l2.317 2.316 2.84 2.84c.509.509 1.32.547 1.894.112a35 35 0 0 1 3.389-2.271 34.75 34.75 0 0 1 17.694-4.814 34.8 34.8 0 0 1 22.146 7.926 35 35 0 0 1 4.131 4.007c.474.542.43 1.355-.079 1.863l-2.354 2.354-2.886 2.886c-.494.494-.546 1.274-.156 1.853.785 1.164 1.471 2.4 2.056 3.692a24.96 24.96 0 0 1 2.228 10.33 25.08 25.08 0 0 1-10.003 20.045 25 25 0 0 1-4.666 2.775 24.95 24.95 0 0 1-10.417 2.266c-3.72 0-7.179-.8-10.33-2.227a25.4 25.4 0 0 1-3.693-2.058c-.578-.39-1.357-.337-1.85.156l-1.771 1.77c-.594.595-.538 1.577.148 2.063q1.548 1.098 3.233 1.998a30.2 30.2 0 0 0 14.263 3.558 30.3 30.3 0 0 0 14.343-3.6 30.5 30.5 0 0 0 4.487-2.957 30.4 30.4 0 0 0 4.962-4.962 30 30 0 0 0 2.957-4.487 30.2 30.2 0 0 0 3.6-14.344 30.1 30.1 0 0 0-3.084-13.337 1.45 1.45 0 0 1 .261-1.66l1.335-1.334c.65-.65 1.74-.51 2.162.306a34.76 34.76 0 0 1 3.891 16.025 34.8 34.8 0 0 1-7.085 21.083 1.445 1.445 0 0 0 .113 1.894l1.756 1.757c.582.582 1.54.542 2.045-.108a39.991 39.991 0 0 0 8.43-24.626c0-7.919-2.274-15.241-6.2-21.445a40.416 40.416 0 0 0-8.091-9.277 39.98 39.98 0 0 0-25.883-9.452c-7.546 0-14.551 2.064-20.563 5.655a1.44 1.44 0 0 1-1.754-.205l-1.29-1.29c-.625-.625-.523-1.668.231-2.132a44.5 44.5 0 0 1 23.377-6.589 44.6 44.6 0 0 1 28.123 9.944c.57.461 1.399.43 1.917-.088l1.749-1.749c.575-.574.544-1.516-.085-2.032a51 51 0 0 0-3.028-2.3A49.77 49.77 0 0 0 49.995 0c-10.67 0-20.498 3.326-28.603 8.99a50 50 0 0 0-4.182 3.259 50.5 50.5 0 0 0-4.961 4.96 50 50 0 0 0-3.26 4.183A49.8 49.8 0 0 0 0 50.005 49.84 49.84 0 0 0 11.338 81.71c.515.628 1.459.66 2.034.085l1.747-1.748a1.435 1.435 0 0 0 .088-1.917 44 44 0 0 1-2.382-3.228zm78.234-53.424-.003-.002a51 51 0 0 0-2.282-3.03 1.37 1.37 0 0 0-2.037-.09l-1.749 1.75a1.436 1.436 0 0 0-.09 1.914 45 45 0 0 1 2.374 3.244 44.5 44.5 0 0 1 7.462 24.743 44.6 44.6 0 0 1-10.719 29.051 45 45 0 0 1-3.986 4.103 1.37 1.37 0 0 1-1.893-.06l-2.317-2.316-2.839-2.84a1.446 1.446 0 0 0-1.895-.112 35 35 0 0 1-3.388 2.271 34.75 34.75 0 0 1-17.694 4.814 34.63 34.63 0 0 1-17.617-4.768 35 35 0 0 1-4.397-3.05 35.4 35.4 0 0 1-4.149-3.978 1.363 1.363 0 0 1 .074-1.869l2.35-2.349 2.88-2.882c.497-.495.547-1.279.15-1.858a25 25 0 0 1-2.076-3.66A25 25 0 0 1 24.91 50c0-3.752.814-7.242 2.267-10.418a25 25 0 0 1 2.775-4.666 25.2 25.2 0 0 1 4.961-4.962 25 25 0 0 1 4.667-2.775 24.95 24.95 0 0 1 10.417-2.267 25.07 25.07 0 0 1 14.161 4.383c.58.396 1.362.346 1.858-.15l1.77-1.77c.593-.593.54-1.571-.14-2.06a30 30 0 0 0-3.221-2.02 30.2 30.2 0 0 0-14.428-3.642 30.1 30.1 0 0 0-14.343 3.6 30.4 30.4 0 0 0-4.488 2.958 30.5 30.5 0 0 0-4.961 4.96 30 30 0 0 0-2.958 4.488 30.2 30.2 0 0 0-3.6 14.344c0 4.819 1.138 9.429 3.16 13.498.277.556.181 1.23-.258 1.67l-1.325 1.324c-.648.648-1.734.512-2.16-.3a34.76 34.76 0 0 1-3.978-16.192c0-6.491 1.755-12.505 4.814-17.694a35 35 0 0 1 2.271-3.389 1.446 1.446 0 0 0-.112-1.895l-1.757-1.756c-.582-.582-1.54-.542-2.045.108a39.986 39.986 0 0 0-8.43 24.626c0 7.919 2.308 15.36 6.294 21.599a40.678 40.678 0 0 0 8.13 9.235 41 41 0 0 0 4.305 3.14 40 40 0 0 0 21.445 6.2 40.1 40.1 0 0 0 20.564-5.656 1.44 1.44 0 0 1 1.753.206l1.29 1.29c.626.626.523 1.669-.23 2.132a44.5 44.5 0 0 1-23.377 6.589 44.46 44.46 0 0 1-24.743-7.463 45 45 0 0 1-3.244-2.374 1.436 1.436 0 0 0-1.914.09l-1.751 1.752c-.576.575-.544 1.521.088 2.035a51 51 0 0 0 3.035 2.283A49.76 49.76 0 0 0 50.005 100a49.85 49.85 0 0 0 28.603-8.989 50 50 0 0 0 4.182-3.26 50.5 50.5 0 0 0 4.961-4.96 50 50 0 0 0 3.26-4.183A49.77 49.77 0 0 0 100 50.005c0-10.637-3.305-20.44-8.94-28.53v-.002zM34.062 37.447h31.855v.004c.832 0 1.368.877.99 1.614L51.046 70.11c-.413.8-1.564.804-1.978 0l-15.996-31.05a1.11 1.11 0 0 1 .99-1.614m17.67 24.927 9.438-18.478.003-.003a.66.66 0 0 0-.589-.962h-18.96a.66.66 0 0 0-.59.962l9.522 18.481a.66.66 0 0 0 1.176 0" clip-rule="evenodd"/></svg>