<svg xmlns="http://www.w3.org/2000/svg" width="447" height="101" fill="none" viewBox="0 0 447 101"><path fill="#0d0c0d" d="M74.603 27.587h42.406c1.134 0 1.85.925 1.582 2.059l-2.119 9.162c-.269 1.134-1.403 2.059-2.537 2.059h-24.44c-1.105 0-2.209.895-2.448 2v.119c-.268 1.104.418 1.999 1.522 1.999h21.964c1.134 0 1.851.925 1.582 2.06l-1.552 6.773c-.268 1.134-1.402 2.06-2.537 2.06H86.062c-1.104 0-2.208.895-2.447 1.999s.448 2 1.552 2h24.441c1.134 0 1.85.924 1.582 2.058l-2.149 9.281c-.268 1.135-1.402 2.06-2.536 2.06H64.098c-1.134 0-1.85-.925-1.581-2.06l9.58-41.51c.268-1.134 1.402-2.06 2.536-2.06zM147.568 29.646l-6.476 28.141c-.269 1.135.448 2.06 1.582 2.06h20.71c1.134 0 1.85.925 1.582 2.059l-2.149 9.28c-.268 1.135-1.402 2.06-2.507 2.06h-38.735c-1.134 0-1.85-.925-1.582-2.06l9.55-41.48c.268-1.134 1.402-2.06 2.536-2.06h13.877c1.134 0 1.85.926 1.582 2.06zM49.147 27.587H4.801c-1.134 0-2.268.925-2.506 2.059l-2.15 9.281c-.268 1.134.449 2.06 1.583 2.06H5.01c1.045 0 1.79.954 1.582 1.969L.086 71.186c-.268 1.135.448 2.06 1.582 2.06h13.907c1.134 0 2.268-.925 2.536-2.06L20.827 59.4c.268-1.134 1.402-2.06 2.536-2.06h3.402c.806 0 1.433.448 1.642 1.135l4.327 13.697c.209.657.806 1.075 1.552 1.075h14.563c1.582 0 2.954-1.731 2.477-3.074l-3.97-11.34c-.357-1.045.389-2.358 1.582-2.895 5.044-2.208 9.043-6.983 10.535-13.459 2.119-9.161-2.298-14.861-10.356-14.861zm-5.7 15.339c-.268 1.134-1.402 2.059-2.536 2.059H26.169c-1.134 0-1.85-.925-1.582-2.06.268-1.133 1.402-2.058 2.537-2.058h14.742c1.134 0 1.85.925 1.581 2.059M230.5 70.321l-9.371-41.51c-.179-.717-.775-1.194-1.581-1.194h-33.722c-1.134 0-2.268.925-2.507 2.059l-2.149 9.28c-.268 1.135.448 2.06 1.582 2.06h3.372c1.313 0 2.059 1.462 1.313 2.537L168.845 70.38c-.925 1.343-.298 2.895 1.194 2.895h15.16c.895 0 1.821-.537 2.328-1.373l2.775-4.357c.507-.806 1.403-1.343 2.298-1.343h15.518c.836 0 1.492.507 1.671 1.253l.985 4.477c.179.776.836 1.283 1.701 1.283h15.548c1.492 0 2.835-1.552 2.537-2.895zm-25.575-15.279h-4.387c-1.402 0-2.089-1.403-1.313-2.716L202.896 46c1.074-1.85 3.67-1.82 3.879 0l.716 6.326c.15 1.343-1.163 2.716-2.566 2.716M291.916 27.587h-17.458c-.686 0-1.432.358-1.91.985l-6.953 9.55c-.925 1.133-2.567 1.312-3.223.328l-6.894-10.207c-.268-.417-.746-.656-1.313-.656h-15.13c-1.761 0-3.133 2.119-2.178 3.372l15.01 21.845c.478.626.388 1.581-.179 2.357l-12.325 15.07c-1.074 1.314-.507 2.955 1.015 2.955h16.592c.687 0 1.433-.358 1.91-.985l34.051-41.69c1.074-1.313.507-2.954-1.015-2.954z"/><path fill="#4615c8" d="M446.022 49.7c-.268-1.611-1.79-2.835-3.581-2.835h-89.497a1.29 1.29 0 0 1-1.254-.895c-.059-.21-.268-.925.418-1.492l46.853-38.05c1.373-1.104 1.82-3.014.985-4.446a3.34 3.34 0 0 0-2.358-1.671c-.985-.18-1.999.06-2.775.716l-46.644 37.9c-.686.567-1.373.209-1.552.09-.179-.12-.806-.568-.597-1.433l5.819-25.157c.388-1.731-.447-3.492-1.939-4.118-.955-.388-1.97-.358-2.895.119a3.36 3.36 0 0 0-1.731 2.268l-6.714 29.067c-.179.776-.836.955-1.015 1.014s-.865.12-1.343-.507l-9.669-12.594c-1.074-1.402-2.984-1.88-4.417-1.104a3.39 3.39 0 0 0-1.73 2.298c-.209.985 0 2 .626 2.775l10.057 13.101c.328.418.358.955.149 1.403a1.31 1.31 0 0 1-1.193.746h-26.411c-1.79 0-3.312 1.223-3.581 2.835a3.25 3.25 0 0 0 .776 2.775 3.35 3.35 0 0 0 2.596 1.194h22.889c.866 0 1.194.686 1.254.895.059.21.268.925-.418 1.492l-14.981 12.176c-1.343 1.075-1.761 2.955-1.015 4.327.478.896 1.343 1.522 2.388 1.731 1.014.21 2.029-.03 2.775-.656l14.772-12.027c.687-.567 1.373-.209 1.552-.09.179.12.806.568.597 1.433l-5.82 25.187c-.387 1.641.359 3.313 1.731 3.999.925.448 2.03.478 2.985 0a3.4 3.4 0 0 0 1.88-2.268l6.714-29.067c.179-.776.836-.955 1.015-1.014.209-.03.865-.12 1.343.507l29.723 38.646c.567.776 1.492 1.224 2.477 1.283h.209c.955 0 1.85-.388 2.477-1.044 1.134-1.194 1.164-3.134.089-4.536l-29.872-38.825a1.34 1.34 0 0 1-.149-1.403 1.31 1.31 0 0 1 1.193-.746h93.467c1.015 0 1.94-.448 2.596-1.194.657-.776.925-1.76.776-2.775z"/></svg>