<svg xmlns="http://www.w3.org/2000/svg" width="143" height="45" fill="none" viewBox="0 0 143 45"><path fill="#fcd000" d="M134.187 11.63a.43.43 0 0 1 .343-.185h5.556c.119 0 .396.132.316.238l-16.706 23.146a.57.57 0 0 1-.462.238h-5.08c-.278 0-.594-.317-.436-.555z"/><path fill="#000" d="M46.447 27.715a.39.39 0 0 0-.528.066c-1.768 2.058-3.708 2.6-5.714 2.6-4.579 0-7.31-3.128-7.31-6.955s3.061-6.955 6.809-6.955c3.114 0 5.41 1.835 6.4 4.474a.296.296 0 0 1-.277.396h-7.073a.39.39 0 0 0-.396.396v3.378c0 .224.172.396.396.396h13.012a.514.514 0 0 0 .514-.449 10 10 0 0 0 .132-1.636c0-6.81-5.7-12.299-12.655-12.299s-12.655 5.49-12.655 12.299c0 6.81 5.7 12.299 12.655 12.299 4.54 0 8.089-1.86 10.464-4.87a.3.3 0 0 0-.052-.422zM63.047 26.95V1.363a.39.39 0 0 0-.396-.396H57.11a.39.39 0 0 0-.396.396V26.33c0 6.15 2.059 8.907 8.274 8.907h.713a.53.53 0 0 0 .527-.528v-4.447a.39.39 0 0 0-.395-.396h-.093c-1.61 0-2.692-.712-2.692-2.916M76.242 26.95V1.363a.39.39 0 0 0-.395-.396h-5.543a.39.39 0 0 0-.396.396V26.33c0 6.15 2.059 8.907 8.274 8.907h.713a.53.53 0 0 0 .528-.528v-4.447a.39.39 0 0 0-.396-.396h-.093c-1.61 0-2.692-.712-2.692-2.916M3.849 44.33v-4.79c0-.225.171-.396.396-.396h2.19c1.386 0 2.64-1.32 3.273-2.64 0-.013.013-.026.013-.04l.25-.764a1.24 1.24 0 0 0-.039-.924L.035 11.986a.395.395 0 0 1 .37-.554h5.687c.211 0 .396.118.475.316l6.796 15.057a.267.267 0 0 0 .489 0l6.334-15.03a.52.52 0 0 1 .488-.317h5.753a.4.4 0 0 1 .37.554l-11.56 26.881c-1.465 3.563-4.816 5.86-8.789 5.86h-2.19c-.224-.027-.41-.199-.41-.423M108.455 11.457h5.661c.212 0 .41.132.489.33l9.039 22.75a.395.395 0 0 1-.369.541h-5.384a.53.53 0 0 1-.489-.33l-9.303-22.75a.38.38 0 0 1 .356-.541M121.441 11.457h5.661c.211 0 .409.132.489.33l9.039 22.75a.395.395 0 0 1-.37.541h-5.384a.53.53 0 0 1-.488-.33l-9.303-22.75a.388.388 0 0 1 .356-.541M142.727 16.737l-2.072-4.962a.53.53 0 0 0-.488-.33h-5.648a.4.4 0 0 0-.37.554l2.125 4.962a.52.52 0 0 0 .488.317h5.595c.291.013.475-.277.37-.541"/><path fill="#fcd000" d="M96.803 20.602h-4.605a.586.586 0 0 0-.58.58v4.236c0 .317.263.58.58.58h4.605c.317 0 .58-.263.58-.58v-4.236a.586.586 0 0 0-.58-.58"/><path fill="#000" d="M87.659 20.788a.68.68 0 0 0 .607-.396c1.068-2.336 3.47-4.012 6.202-4.012 2.745 0 5.146 1.61 6.202 3.999a.67.67 0 0 0 .607.395h5.12c.277 0 .462-.224.383-.501-1.412-5.305-6.321-9.277-12.299-9.277s-10.9 3.959-12.299 9.277c-.066.277.106.502.383.502h5.094zM101.316 25.88a.67.67 0 0 0-.607.396 6.79 6.79 0 0 1-6.202 3.999c-2.731 0-5.133-1.676-6.202-4.012a.67.67 0 0 0-.607-.396h-5.094c-.277 0-.462.224-.382.502 1.412 5.305 6.32 9.277 12.298 9.277s10.901-3.96 12.299-9.277c.066-.277-.105-.502-.382-.502h-5.121z"/></svg>