<svg width="548" height="138" viewBox="0 0 548 138" fill="none" xmlns="http://www.w3.org/2000/svg">
<path d="M103.596 9.22563C93.0251 3.07522 81.4931 0 69 0C56.507 0 44.9749 3.07522 34.4039 9.22563C23.8329 15.3761 15.3761 23.8329 9.22563 34.4039C3.07522 44.9749 0 56.507 0 69C0 81.493 3.07522 93.0251 9.22563 103.596C15.3761 114.167 23.8329 122.624 34.4039 128.774C44.9749 134.925 56.507 138 69 138C81.4931 138 93.0251 134.925 103.596 128.774C114.167 122.624 122.624 114.167 128.774 103.596C134.925 93.0251 138 81.493 138 69C138 56.507 134.925 44.9749 128.774 34.4039C122.624 23.8329 114.167 15.3761 103.596 9.22563ZM73.2284 93.9861C65.3482 93.9861 59.1978 91.6797 54.3928 87.2591C51.1253 84.1838 49.0112 80.5321 48.0502 76.1114H122.624C121.855 82.4541 119.933 88.4123 117.242 93.9861H73.4206H73.2284ZM48.0502 62.0808C49.0112 57.8524 51.1253 54.0084 54.3928 50.9332C59.1978 46.5125 65.3482 44.2061 73.2284 44.2061H117.242C120.125 49.78 121.855 55.7382 122.624 62.0808H48.0502ZM22.2953 41.5153C27.1003 33.2507 33.6351 26.5237 41.8997 21.7187C50.1643 16.9137 59.1978 14.415 69.1922 14.415C79.1867 14.415 88.2201 16.9137 96.4847 21.7187C100.713 24.2173 104.365 27.1003 107.825 30.5599H73.0362C65.156 30.5599 58.0446 32.2897 51.8942 35.5571C45.7438 38.8245 40.9387 43.4373 37.6713 49.2034C35.3649 53.2396 33.8273 57.6602 33.0585 62.273H15.9527C16.7215 54.9694 19.0279 48.0501 22.6797 41.7075L22.2953 41.5153ZM96.2925 116.281C88.0279 121.086 78.9944 123.585 69 123.585C59.0056 123.585 49.9722 121.086 41.7075 116.281C33.4429 111.476 26.9081 104.749 22.1031 96.4847C18.4513 90.1421 16.1448 83.4151 15.376 76.1114H32.4819C33.2507 80.7243 34.7883 85.1448 37.0947 89.1811C40.5543 94.9471 45.3593 99.3677 51.3176 102.827C57.468 106.095 64.5794 107.825 72.4596 107.825H107.056C103.788 111.092 100.137 113.975 96.1003 116.281H96.2925Z" fill="white"/>
<path d="M249.673 91.2953L236.411 40.7465C235.45 37.2869 233.72 34.4039 231.221 32.4819C228.723 30.3677 225.647 29.4067 221.996 29.4067C218.344 29.4067 215.461 30.3677 212.962 32.4819C210.464 34.5961 208.734 37.2869 207.773 40.7465L194.703 91.103L178.558 30.5599H159.723L179.327 97.0613C181.634 105.326 186.631 109.362 194.127 109.362C201.622 109.362 201.238 108.209 203.737 106.095C206.043 103.981 207.773 100.905 208.734 97.0613L221.996 45.9359L235.065 97.0613C237.179 105.326 242.177 109.362 249.865 109.362C257.553 109.362 262.358 105.326 264.664 97.0613L284.076 30.5599H265.433L249.48 91.2953H249.673Z" fill="white"/>
<path d="M349.611 33.8273C343.269 30.1755 336.157 28.4457 328.277 28.4457C320.397 28.4457 313.478 30.1755 307.135 33.8273C300.792 37.4791 295.795 42.4763 292.143 48.6267C288.492 54.7772 286.762 61.6964 286.762 69.1922C286.762 76.688 288.492 83.6072 292.143 89.7577C295.795 95.9081 300.792 100.905 307.135 104.557C313.478 108.209 320.589 109.939 328.277 109.939C335.965 109.939 343.269 108.209 349.611 104.557C355.954 100.905 360.951 95.9081 364.603 89.7577C368.255 83.6072 369.985 76.688 369.985 69.1922C369.985 61.6964 368.255 54.7772 364.603 48.6267C360.951 42.4763 355.954 37.4791 349.611 33.8273ZM349.035 81.6852C347.113 85.5292 344.23 88.4122 340.77 90.7187C337.31 92.8329 333.082 93.9861 328.469 93.9861C323.856 93.9861 319.82 92.8329 316.168 90.7187C312.709 88.6044 309.826 85.5293 307.904 81.8774C305.982 78.2256 304.829 73.9972 304.829 69.1922C304.829 64.3872 305.79 60.351 307.904 56.5069C309.826 52.6629 312.709 49.7799 316.168 47.4735C319.628 45.3593 323.856 44.2061 328.469 44.2061C333.082 44.2061 337.118 45.3593 340.77 47.4735C344.23 49.5877 347.113 52.663 349.035 56.3148C350.957 59.9666 352.11 64.195 352.11 69C352.11 73.805 351.149 77.8412 349.035 81.6852Z" fill="white"/>
<path d="M405.543 34.7883C401.891 37.4791 399.393 41.1309 397.663 45.5515V30.3677H379.98V107.632H397.855V73.2284C397.855 64.0028 399.969 57.468 404.39 53.4318C408.811 49.3955 414.961 47.2813 423.033 47.2813H423.418V29.4067H422.841C416.114 29.4067 410.348 31.1365 405.543 34.7883Z" fill="white"/>
<path d="M454.748 89.9499C453.018 88.0279 452.25 84.9527 452.25 80.9165V0.768799H434.375V83.2229C434.375 91.8719 436.681 98.2145 441.102 102.251C445.523 106.287 452.442 108.401 461.475 108.401H463.205V93.2173C459.169 93.2173 456.286 92.0641 454.556 90.1421L454.748 89.9499Z" fill="white"/>
<path d="M530.279 0.768799V40.1699C528.55 37.8635 526.435 35.7493 523.745 33.8273C518.363 30.1755 512.02 28.4457 504.717 28.4457C497.413 28.4457 490.11 30.1755 484.344 33.6351C478.385 37.0947 473.772 42.0919 470.505 48.2424C467.238 54.585 465.508 61.5042 465.508 69.1922C465.508 76.8802 467.045 83.9917 470.313 90.1421C473.58 96.2925 478.193 101.098 484.151 104.749C490.11 108.209 497.029 109.939 504.717 109.939C512.405 109.939 513.942 109.17 517.979 107.44C522.015 105.71 525.474 103.404 528.165 100.329C528.934 99.5599 529.511 98.5989 530.087 97.8301V107.825H547.962V0.768799H530.087H530.279ZM527.781 81.8775C525.859 85.7215 522.976 88.7967 519.324 90.9109C515.672 93.0251 511.636 94.1783 506.831 94.1783C502.026 94.1783 497.99 93.0251 494.53 90.9109C491.071 88.7967 488.38 85.7215 486.458 81.8775C484.536 78.0335 483.575 73.805 483.575 69C483.575 64.195 484.536 59.9666 486.458 56.1226C488.38 52.2786 491.071 49.2034 494.53 47.0892C497.99 44.9749 502.218 43.8217 506.831 43.8217C511.444 43.8217 515.672 44.9749 519.324 47.0892C522.976 49.2034 525.667 52.2786 527.781 56.1226C529.703 59.9666 530.856 64.195 530.856 69C530.856 73.805 529.895 78.0335 527.781 81.8775Z" fill="white"/>
</svg>
