<?xml version="1.0" encoding="utf-8"?>
<!-- Generator: Adobe Illustrator 25.0.1, SVG Export Plug-In . SVG Version: 6.00 Build 0)  -->
<svg version="1.1" id="Logo" xmlns="http://www.w3.org/2000/svg" xmlns:xlink="http://www.w3.org/1999/xlink" x="0px" y="0px"
	 viewBox="0 0 4034 1020.5" style="enable-background:new 0 0 4034 1020.5;" xml:space="preserve">
<style type="text/css">
	.st0{fill:#B7B5B1;}
	.st1{fill:#FFFFFF;}
</style>
<g>
	<g>
		<g id="Shape_1_3_">
			<g>
				<path class="st0" d="M1014.8,462.4c-115-666.3-985-537.4-1000.6,0C64.5,488.5,96,504.3,96,504.3s-26.6,15.9-82.1,51.4
					c100.3,653.2,955.3,558.4,1000.7-0.8c-54.4-33.3-84-50.9-84-50.9S956,492,1014.8,462.4z M586.7,695.1l-81.6-140.3L422,695.1
					l-62.7-4.3l118-199L371,320l64.1-5.7l75.8,127.4L586.7,320l59.7,1.4l-99.1,168.9l109.3,203.3L586.7,695.1z"/>
			</g>
		</g>
		<g id="Shape_1_2_">
			<g>
				<path class="st1" d="M974.2,436.3c-155.9-592.1-870.4-431.9-919.4,0c99.1,55.8,121.6,68.9,121.6,68.9s-38.3,24.5-122,77.6
					c106.4,569.2,877.3,459.8,919.6-0.7C896.2,533.4,850.3,505,850.3,505S955.2,446.3,974.2,436.3z M586.7,695.5l-81.6-140.3
					L422,695.5l-62.7-4.3l118-198.9L371.1,320.5l64.1-5.7l75.8,127.4l75.8-121.7l59.7,1.4l-99.1,168.9l109.3,203.2L586.7,695.5z"/>
			</g>
		</g>
	</g>
	<g>
		<g>
			<path class="st1" d="M2829,537.4c-11.3-11.8-25.6-22.6-42.5-31.9c-16.7-9.3-36.4-18.4-58.5-27.2c-20.3-8-37.5-15.6-51.3-22.7
				c-13.6-7-24.7-14.5-33-22.5c-8.1-7.8-14-16.6-17.5-26.2c-3.5-9.7-5.3-21.4-5.3-34.9c0-22.3,7.8-40.2,23.3-53.2
				c15.6-13.2,38.2-19.9,66.9-19.9c21,0,41.7,2.6,61.4,7.7c19.8,5.2,37.7,11.3,53.3,18.2l4.1-1.6l24.4-56.9l-1.5-4
				c-18.1-8.6-39.1-15.7-62.2-21.2c-23.2-5.5-49.7-8.3-78.8-8.3c-23.8,0-45.9,3.1-65.7,9.3c-19.9,6.2-37.2,15.3-51.6,27
				c-14.4,11.8-25.7,26.5-33.7,43.6c-7.9,17.1-12,36.8-12,58.6c0,20.6,2.6,39.4,7.6,55.6c5.1,16.4,13,31.2,23.5,44.1
				c10.5,12.8,24,24.5,40.1,34.8c16,10.1,35.1,19.6,56.9,28.2c22.4,8.9,41.2,17.3,55.9,24.9c14.5,7.5,26.2,15.3,34.9,23.2
				c8.5,7.8,14.4,16.4,17.8,25.6c3.4,9.4,5.1,20.5,5.1,33.2c0,26.1-9,46.4-26.7,60.3c-18,14.1-46.3,21.2-84.3,21.2
				c-11.9,0-24.2-0.9-36.4-2.7c-12.2-1.8-24.3-4.2-35.8-7.1c-11.6-2.9-22.7-6.2-33.1-9.9c-10.4-3.7-19.9-7.5-28-11.4l-4.4,2.8v64.9
				l1.7,2.8c16,8.4,36.1,14.8,59.8,19.1c23.6,4.3,49.2,6.4,76.2,6.4c28.1,0,53.8-3.4,76.4-10.2c22.7-6.8,42.2-16.8,58-29.9
				c15.9-13.1,28.2-29.4,36.8-48.3c8.5-18.9,12.9-40.6,12.9-64.6c0-21.2-2.9-39.8-8.8-55.4C2849.1,563.3,2840.4,549.4,2829,537.4z"
				/>
			<path class="st1" d="M3114.5,430.7c6.1,0,12.7,0.5,19.6,1.6c6.9,1.1,14.1,2.5,21.2,4.3c7.2,1.8,14.2,3.8,20.9,6.1
				c6.7,2.3,12.9,4.6,18.4,7l4.2-1.8l19.7-56.2l-1.5-3.8c-12.3-6.2-27.8-11.4-46.1-15.6c-18.3-4.2-37.2-6.3-56.3-6.3
				c-25,0-48.8,3.9-70.7,11.5c-22,7.7-41.5,20.1-57.9,37.1c-16.4,16.9-29.5,39.1-38.8,66.1c-9.3,26.8-14,59.9-14,98.2
				c0,36.7,4.6,68.5,13.7,94.6c9.1,26.2,21.8,48,37.9,64.9c16.1,16.9,35.2,29.5,57,37.3c21.6,7.7,45.2,11.7,70,11.7
				c21.8,0,40.5-1.9,55.6-5.6c15.2-3.7,29.6-9.2,42.9-16.3l1.6-2.7v-59.1l-4.4-2.8c-12.9,6-27.4,11.3-43.1,15.7
				c-15.6,4.4-33.3,6.6-52.6,6.6c-34.8,0-61-11.5-77.9-34.3c-17.1-23-25.8-60.3-25.8-110.6c0-50.6,8.6-88.4,25.7-112.2
				C3050.3,442.6,3077.5,430.7,3114.5,430.7z"/>
			<path class="st1" d="M3544.5,398.2c-12.1-11.1-27.6-19.3-46.1-24.4c-18.3-5-40.2-7.6-65.2-7.6c-24.5,0-48.2,3.5-70.6,10.3
				c-22.2,6.8-42.6,15.3-60.7,25l-1.3,4.1l23.3,50l4.2,1.4c15.9-8.2,32.6-15.2,49.7-21c17-5.7,35.6-8.6,55.4-8.6
				c12.3,0,23.3,1.4,32.8,4.2c9.3,2.8,17.2,7.3,23.5,13.6c6.3,6.3,11.2,14.8,14.6,25.2c3.4,10.6,5.1,24,5.1,39.9v22.2l-64.1,2.4
				c-57.8,2-101.5,14-130,35.6c-28.8,21.9-43.3,53.7-43.3,94.4c0,20.7,3,38.9,9,54.2c6,15.3,14.4,28.2,25,38.3
				c10.6,10.1,23.3,17.7,37.8,22.6c14.4,4.8,30.3,7.3,47.3,7.3c15.4,0,29.3-1.2,41.1-3.7c11.9-2.5,22.9-6.4,32.6-11.6
				c9.7-5.2,18.8-12,27-20c7.5-7.4,15.1-16.2,22.6-26.3l12.6,51.9l3,2.4h47.8l3.1-3.1V502.8c0-24.1-3-44.9-8.9-61.9
				C3565.8,423.7,3556.6,409.3,3544.5,398.2z M3508.5,584.4v32.8c0,18.7-2.6,35.3-7.6,49.1c-5.1,13.7-12.1,25.3-21,34.3
				c-8.9,9-19.5,15.8-31.7,20.2c-12.2,4.5-25.7,6.7-40.1,6.7c-18.3,0-33.3-5-44.4-14.9c-11-9.8-16.6-25.6-16.6-46.9
				c0-12,1.9-22.8,5.6-32.2c3.7-9.3,9.8-17.3,18.2-23.9c8.5-6.6,20.1-11.9,34.4-15.7c14.6-3.8,32.9-6.2,54.4-7.2L3508.5,584.4z"/>
			<path class="st1" d="M3985.6,401.9c-23-23.7-57.6-35.8-102.7-35.8c-11.8,0-23.6,1.3-34.9,3.7c-11.4,2.5-22.3,6.4-32.5,11.6
				c-10.2,5.2-19.7,11.8-28.2,19.6c-7.9,7.2-14.9,15.8-20.8,25.4l-8.9-50.5l-3.1-2.6h-54l-3.1,3.1V777l3.1,3.1h66.4l3.1-3.1V569.5
				c0-23,1.8-43.7,5.2-61.4c3.4-17.5,9.2-32.5,17.1-44.5c7.8-11.9,18.2-20.9,31-27c12.9-6.1,29.1-9.2,48.3-9.2
				c26.1,0,45.5,7.6,57.6,22.5c12.2,15.2,18.5,38.4,18.5,69.2V777l3.1,3.1h66.4l3.1-3.1V515.5
				C4020.2,463.9,4008.5,425.7,3985.6,401.9z"/>
		</g>
		<g>
			<polygon class="st1" points="1410.2,496.7 1555.3,258.1 1555.4,255.1 1548,242 1545.4,240.5 1478.3,240.5 1476.8,240.9 
				1469.4,245.1 1468.3,246.1 1360.3,426.9 1252.9,246.2 1251.8,245.1 1244.4,240.9 1242.9,240.5 1173,240.5 1170.3,242 1163,255.1 
				1163,258.1 1308.5,498.8 1152,762.8 1152,765.8 1159.4,778.8 1162,780.3 1228.4,780.3 1229.9,779.9 1237.4,775.6 1238.5,774.5 
				1357.9,567.9 1473.1,774.4 1474.2,775.5 1481.7,779.9 1483.2,780.3 1557.8,780.3 1560.4,778.8 1567.8,765.8 1567.8,762.8 			"/>
			<path class="st1" d="M1952.7,308.5L1952.7,308.5c-21.6-22.5-48.2-39.7-78.9-51.1c-30.4-11.3-64.7-17-101.9-17h-143.8l-2.1,0.9
				l-8.6,8.6l-0.9,2.1v516.6l0.9,2.1l8.6,8.6l2.1,0.9h129.3c40.7,0,77.8-5.8,110.1-17.3c32.8-11.6,60.8-29.3,83.4-52.5
				c22.5-23.2,40-52.3,51.8-86.7c11.7-33.9,17.6-73.8,17.6-118.4c0-42.6-5.9-80.7-17.5-113.4C1991.1,359.1,1974.3,331,1952.7,308.5z
				 M1927.5,507.6c0,64.3-14.9,113.1-44.3,145.2c-29.1,31.7-73.6,47.8-132.1,47.8h-45.6V319.9h59.4c26.1,0,49.6,3.7,69.9,11.1
				c19.8,7.2,36.7,18.4,50.2,33.1c13.6,14.9,24.2,34.3,31.4,57.6C1923.7,445.7,1927.5,474.5,1927.5,507.6z"/>
			<path class="st1" d="M2221.1,365.4c13.3-16.4,29.6-29.2,48.3-37.9c18.9-8.8,40.3-13.2,63.7-13.2c20.9,0,39.7,2.6,55.9,7.6
				c16.7,5.2,32.4,11.5,46.6,18.7l2.3,0.2l11.6-3.8l1.7-1.5l27.6-55.1l0.2-2.3l-3.7-11.5l-1.4-1.7c-19.4-10.3-41.5-18.3-65.5-23.7
				c-23.8-5.3-49.2-8.1-75.3-8.1c-39.6,0-75.3,6.9-106.1,20.4c-30.9,13.6-57.2,33-78.2,57.5c-20.8,24.4-36.8,53.9-47.5,87.8
				c-10.6,33.5-15.9,70.8-15.9,110.9c0,40.7,4.7,78.3,13.8,111.9c9.3,34.1,23.9,63.8,43.3,88.3c19.6,24.7,44.6,44,74.5,57.4
				c29.6,13.3,65,20.1,105.1,20.1c14.1,0,27.2-0.4,38.8-1.3c11.7-0.8,22.9-2.1,33.2-3.8c10.5-1.7,20.6-4,30.2-6.9
				c9.4-2.8,19-6,28.5-9.7l1.4-1.1l5.5-8l0.5-1.7v-57.2l-1.2-2.4L2448,687l-2.6-0.5c-18,5.3-36.5,10.1-55,14.1h0
				c-17.9,3.9-37.2,5.9-57.2,5.9c-26,0-48.9-4.3-68.1-12.8c-18.9-8.4-34.9-20.8-47.5-36.8c-12.9-16.3-22.7-36.9-29.2-61
				c-6.7-24.7-10-53.4-10-85.5c0-31,3.8-59.1,11.3-83.5C2197,402.8,2207.6,382.1,2221.1,365.4z"/>
		</g>
	</g>
</g>
</svg>
