<svg width="338" height="338" viewBox="0 0 338 338" fill="none" xmlns="http://www.w3.org/2000/svg">
<g clip-path="url(#clip0_15083_6329)">
<path d="M337.963 152.844C299.131 -72.1369 5.365 -28.5999 0.123 152.844C17.079 161.642 27.727 166.987 27.727 166.987C27.727 166.987 18.74 172.368 0 184.342C33.855 404.904 322.559 372.873 337.906 184.088C319.551 172.835 309.543 166.897 309.543 166.897C309.543 166.897 318.127 162.808 337.963 152.844ZM193.422 231.398L165.867 184.026L137.818 231.398L116.661 229.948L156.515 162.76L120.595 104.756L142.247 102.821L167.831 145.842L193.421 104.756L213.595 105.239L180.136 162.278L217.036 230.916L193.422 231.398Z" fill="#B7B5B1"/>
<path d="M324.257 144.143C271.614 -55.7719 30.347 -1.68695 13.821 144.143C47.297 162.979 54.893 167.406 54.893 167.406C54.893 167.406 41.955 175.678 13.707 193.62C49.62 385.809 309.939 348.875 324.205 193.386C297.934 176.919 282.435 167.323 282.435 167.323C282.435 167.323 317.858 147.524 324.257 144.143ZM193.419 231.655L165.866 184.294L137.823 231.655L116.669 230.205L156.517 163.029L120.605 105.037L142.251 103.102L167.833 146.114L193.419 105.036L213.589 105.519L180.132 162.544L217.03 231.169L193.419 231.655Z" fill="white"/>
</g>
<defs>
<clipPath id="clip0_15083_6329">
<rect width="337.963" height="337.958" fill="white"/>
</clipPath>
</defs>
</svg>
