<svg width="33" height="33" viewBox="0 0 33 33" fill="none" xmlns="http://www.w3.org/2000/svg">
<ellipse cx="16.5034" cy="16.5033" rx="16.0034" ry="16.0033" stroke="#94A3B8" stroke-dasharray="2 2"/>
<path d="M6.51025 16.5C6.51025 10.9772 10.9874 6.5 16.5103 6.5C22.0331 6.5 26.5103 10.9772 26.5103 16.5C26.5103 22.0228 22.0331 26.5 16.5103 26.5C10.9874 26.5 6.51025 22.0228 6.51025 16.5Z" fill="#D7E0E6"/>
<path d="M10.8853 21.8939C10.9809 19.0078 11.4702 16.3145 12.2882 14.22C13.324 11.5667 14.8237 10.1055 16.5101 10.1055C18.1965 10.1055 19.6962 11.5667 20.7323 14.2204C21.2711 15.6003 21.6675 17.2402 21.9025 19.0241C21.9237 19.1835 21.9414 19.3453 21.9595 19.507C21.9656 19.5168 21.969 19.5263 21.9679 19.5338C21.9679 19.5338 22.1058 20.3961 22.1353 21.8943H22.1198C21.915 21.7261 19.5001 19.8289 15.497 20.3783C15.5575 19.7008 15.6406 19.0418 15.7479 18.4101C15.7536 18.3779 15.7596 18.3466 15.7653 18.3145C17.3353 18.2672 18.7096 18.4494 19.7634 18.6885C19.7597 18.6636 19.7563 18.6379 19.7521 18.613C19.5356 17.264 19.2159 16.0292 18.8037 14.9738C18.1299 13.2481 17.2507 12.1761 16.5097 12.1761C15.7687 12.1761 14.8894 13.2481 14.2157 14.9738C14.0525 15.3913 13.904 15.8365 13.771 16.3058C13.5839 16.9636 13.4267 17.6691 13.3009 18.4101C13.115 19.5047 12.999 20.6783 12.9563 21.8947H10.8853V21.8939Z" fill="black"/>
</svg>
