<svg width="185" height="138" viewBox="0 0 185 138" fill="none" xmlns="http://www.w3.org/2000/svg">
<path d="M184.094 67.859C184.262 82.9678 181.099 97.4049 174.886 111.199C166.013 130.84 144.742 146.9 125.317 129.805C109.475 115.871 106.536 87.5842 82.8021 83.4434C51.3983 79.6381 50.6426 116.039 30.1267 120.152C7.25973 124.797 -0.325255 86.353 0.0106122 68.894C0.346479 51.4349 4.99264 26.8971 24.8648 26.8971C47.7317 26.8971 49.2711 61.5074 78.2958 59.6328C107.04 57.6743 107.544 21.6649 126.324 6.24838C142.53 -7.06975 161.591 2.69501 171.135 18.7271C179.979 33.5561 183.87 50.9592 184.066 67.859H184.094Z" fill="white"/>
</svg>
