<svg width="960" height="540" viewBox="0 0 960 540" fill="none" xmlns="http://www.w3.org/2000/svg">
<g clip-path="url(#clip0_3440_6156)">
<path d="M195.201 213.364V257H187.296V213.364H195.201ZM208.733 237.824V257H201.02V224.273H208.392V229.834H208.775C209.528 228.001 210.729 226.545 212.376 225.466C214.038 224.386 216.091 223.847 218.534 223.847C220.792 223.847 222.76 224.33 224.436 225.295C226.126 226.261 227.433 227.661 228.356 229.493C229.294 231.325 229.756 233.548 229.741 236.162V257H222.028V237.355C222.028 235.168 221.46 233.456 220.324 232.22C219.202 230.984 217.646 230.366 215.657 230.366C214.308 230.366 213.108 230.665 212.057 231.261C211.02 231.844 210.203 232.689 209.606 233.797C209.024 234.905 208.733 236.247 208.733 237.824ZM249.458 257.639C246.191 257.639 243.385 256.922 241.042 255.487C238.712 254.053 236.915 252.071 235.651 249.543C234.401 247 233.776 244.074 233.776 240.764C233.776 237.44 234.415 234.507 235.694 231.964C236.972 229.408 238.776 227.419 241.106 225.999C243.449 224.564 246.219 223.847 249.415 223.847C252.071 223.847 254.422 224.337 256.468 225.317C258.527 226.283 260.168 227.653 261.39 229.429C262.611 231.19 263.307 233.25 263.478 235.608H256.106C255.807 234.031 255.097 232.717 253.975 231.666C252.867 230.601 251.382 230.068 249.522 230.068C247.945 230.068 246.56 230.494 245.367 231.347C244.174 232.185 243.243 233.392 242.576 234.969C241.922 236.545 241.596 238.435 241.596 240.636C241.596 242.866 241.922 244.784 242.576 246.389C243.229 247.98 244.145 249.209 245.324 250.075C246.517 250.928 247.917 251.354 249.522 251.354C250.658 251.354 251.674 251.141 252.569 250.714C253.478 250.274 254.238 249.642 254.848 248.818C255.459 247.994 255.878 246.993 256.106 245.814H263.478C263.293 248.129 262.611 250.182 261.432 251.972C260.253 253.747 258.648 255.139 256.617 256.148C254.586 257.142 252.199 257.639 249.458 257.639ZM281.687 257.639C278.491 257.639 275.721 256.936 273.377 255.53C271.033 254.124 269.215 252.156 267.922 249.628C266.644 247.099 266.005 244.145 266.005 240.764C266.005 237.384 266.644 234.422 267.922 231.879C269.215 229.337 271.033 227.362 273.377 225.956C275.721 224.55 278.491 223.847 281.687 223.847C284.883 223.847 287.653 224.55 289.996 225.956C292.34 227.362 294.151 229.337 295.43 231.879C296.722 234.422 297.369 237.384 297.369 240.764C297.369 244.145 296.722 247.099 295.43 249.628C294.151 252.156 292.34 254.124 289.996 255.53C287.653 256.936 284.883 257.639 281.687 257.639ZM281.729 251.46C283.462 251.46 284.911 250.984 286.076 250.033C287.241 249.067 288.107 247.774 288.675 246.155C289.258 244.536 289.549 242.732 289.549 240.743C289.549 238.74 289.258 236.929 288.675 235.31C288.107 233.676 287.241 232.376 286.076 231.411C284.911 230.445 283.462 229.962 281.729 229.962C279.954 229.962 278.476 230.445 277.297 231.411C276.133 232.376 275.259 233.676 274.677 235.31C274.109 236.929 273.824 238.74 273.824 240.743C273.824 242.732 274.109 244.536 274.677 246.155C275.259 247.774 276.133 249.067 277.297 250.033C278.476 250.984 279.954 251.46 281.729 251.46ZM301.515 257V224.273H308.994V229.727H309.335C309.931 227.838 310.954 226.382 312.403 225.359C313.866 224.322 315.535 223.804 317.41 223.804C317.836 223.804 318.312 223.825 318.837 223.868C319.377 223.896 319.825 223.946 320.18 224.017V231.112C319.853 230.999 319.335 230.899 318.624 230.814C317.928 230.714 317.254 230.665 316.6 230.665C315.194 230.665 313.93 230.97 312.808 231.581C311.7 232.178 310.826 233.009 310.187 234.074C309.548 235.139 309.228 236.368 309.228 237.76V257H301.515ZM322.904 257V224.273H330.383V229.727H330.724C331.32 227.838 332.343 226.382 333.792 225.359C335.255 224.322 336.924 223.804 338.799 223.804C339.225 223.804 339.701 223.825 340.227 223.868C340.766 223.896 341.214 223.946 341.569 224.017V231.112C341.242 230.999 340.724 230.899 340.013 230.814C339.317 230.714 338.643 230.665 337.989 230.665C336.583 230.665 335.319 230.97 334.197 231.581C333.089 232.178 332.215 233.009 331.576 234.074C330.937 235.139 330.617 236.368 330.617 237.76V257H322.904ZM365.153 243.236V224.273H372.866V257H365.387V251.183H365.046C364.307 253.016 363.093 254.514 361.403 255.679C359.726 256.844 357.66 257.426 355.202 257.426C353.057 257.426 351.161 256.95 349.513 255.999C347.88 255.033 346.601 253.634 345.678 251.801C344.755 249.955 344.293 247.724 344.293 245.111V224.273H352.006V243.918C352.006 245.991 352.574 247.639 353.711 248.861C354.847 250.082 356.339 250.693 358.185 250.693C359.322 250.693 360.422 250.416 361.488 249.862C362.553 249.308 363.427 248.484 364.108 247.391C364.805 246.283 365.153 244.898 365.153 243.236ZM378.397 269.273V224.273H385.982V229.685H386.43C386.827 228.889 387.389 228.044 388.113 227.149C388.837 226.24 389.817 225.466 391.053 224.827C392.289 224.173 393.866 223.847 395.783 223.847C398.312 223.847 400.592 224.493 402.623 225.786C404.668 227.064 406.288 228.96 407.481 231.474C408.688 233.974 409.292 237.043 409.292 240.679C409.292 244.273 408.702 247.327 407.523 249.841C406.344 252.355 404.739 254.273 402.708 255.594C400.677 256.915 398.376 257.575 395.805 257.575C393.93 257.575 392.374 257.263 391.139 256.638C389.903 256.013 388.908 255.26 388.156 254.379C387.417 253.484 386.842 252.639 386.43 251.844H386.11V269.273H378.397ZM385.961 240.636C385.961 242.753 386.259 244.607 386.856 246.197C387.467 247.788 388.34 249.031 389.477 249.926C390.627 250.807 392.019 251.247 393.653 251.247C395.357 251.247 396.785 250.793 397.935 249.884C399.086 248.96 399.952 247.703 400.535 246.112C401.131 244.507 401.43 242.682 401.43 240.636C401.43 238.605 401.139 236.801 400.556 235.224C399.974 233.648 399.107 232.412 397.957 231.517C396.806 230.622 395.371 230.175 393.653 230.175C392.005 230.175 390.606 230.608 389.455 231.474C388.305 232.341 387.431 233.555 386.835 235.118C386.252 236.68 385.961 238.52 385.961 240.636ZM429.839 224.273V230.239H411.025V224.273H429.839ZM415.67 216.432H423.383V247.156C423.383 248.193 423.54 248.989 423.852 249.543C424.179 250.082 424.605 250.452 425.131 250.651C425.656 250.849 426.239 250.949 426.878 250.949C427.361 250.949 427.801 250.913 428.199 250.842C428.611 250.771 428.923 250.707 429.136 250.651L430.436 256.68C430.024 256.822 429.435 256.979 428.668 257.149C427.915 257.32 426.991 257.419 425.898 257.447C423.966 257.504 422.226 257.213 420.677 256.574C419.129 255.92 417.9 254.912 416.991 253.548C416.096 252.185 415.656 250.48 415.67 248.435V216.432ZM433.89 257V224.273H441.603V257H433.89ZM437.768 219.628C436.546 219.628 435.495 219.223 434.614 218.413C433.734 217.589 433.293 216.602 433.293 215.452C433.293 214.287 433.734 213.3 434.614 212.49C435.495 211.666 436.546 211.254 437.768 211.254C439.004 211.254 440.055 211.666 440.921 212.49C441.802 213.3 442.242 214.287 442.242 215.452C442.242 216.602 441.802 217.589 440.921 218.413C440.055 219.223 439.004 219.628 437.768 219.628ZM447.475 257V213.364H455.189V229.685H455.508C455.906 228.889 456.467 228.044 457.191 227.149C457.916 226.24 458.896 225.466 460.132 224.827C461.368 224.173 462.944 223.847 464.862 223.847C467.39 223.847 469.67 224.493 471.701 225.786C473.747 227.064 475.366 228.96 476.559 231.474C477.767 233.974 478.37 237.043 478.37 240.679C478.37 244.273 477.781 247.327 476.602 249.841C475.423 252.355 473.818 254.273 471.787 255.594C469.755 256.915 467.454 257.575 464.883 257.575C463.008 257.575 461.453 257.263 460.217 256.638C458.981 256.013 457.987 255.26 457.234 254.379C456.495 253.484 455.92 252.639 455.508 251.844H455.061V257H447.475ZM455.039 240.636C455.039 242.753 455.338 244.607 455.934 246.197C456.545 247.788 457.419 249.031 458.555 249.926C459.706 250.807 461.098 251.247 462.731 251.247C464.436 251.247 465.863 250.793 467.014 249.884C468.164 248.96 469.031 247.703 469.613 246.112C470.21 244.507 470.508 242.682 470.508 240.636C470.508 238.605 470.217 236.801 469.635 235.224C469.052 233.648 468.186 232.412 467.035 231.517C465.885 230.622 464.45 230.175 462.731 230.175C461.083 230.175 459.684 230.608 458.534 231.474C457.383 232.341 456.51 233.555 455.913 235.118C455.331 236.68 455.039 238.52 455.039 240.636ZM490.241 213.364V257H482.528V213.364H490.241ZM510.261 257.639C506.979 257.639 504.146 256.957 501.759 255.594C499.387 254.216 497.562 252.27 496.283 249.756C495.005 247.227 494.366 244.251 494.366 240.828C494.366 237.462 495.005 234.507 496.283 231.964C497.576 229.408 499.38 227.419 501.695 225.999C504.011 224.564 506.731 223.847 509.856 223.847C511.873 223.847 513.776 224.173 515.566 224.827C517.37 225.466 518.961 226.46 520.339 227.81C521.731 229.159 522.825 230.878 523.62 232.966C524.415 235.04 524.813 237.511 524.813 240.381V242.746H497.988V237.547H517.42C517.406 236.07 517.086 234.756 516.461 233.605C515.836 232.44 514.962 231.524 513.84 230.857C512.732 230.189 511.44 229.855 509.962 229.855C508.386 229.855 507.001 230.239 505.808 231.006C504.614 231.759 503.684 232.753 503.016 233.989C502.363 235.21 502.029 236.553 502.015 238.016V242.554C502.015 244.457 502.363 246.091 503.059 247.455C503.755 248.804 504.728 249.841 505.978 250.565C507.228 251.276 508.691 251.631 510.367 251.631C511.489 251.631 512.505 251.474 513.414 251.162C514.323 250.835 515.112 250.359 515.779 249.734C516.447 249.109 516.951 248.335 517.292 247.412L524.494 248.222C524.039 250.125 523.173 251.787 521.894 253.207C520.63 254.614 519.011 255.707 517.036 256.489C515.062 257.256 512.803 257.639 510.261 257.639ZM541.762 257V213.364H569.717V219.99H549.667V231.837H567.799V238.463H549.667V257H541.762ZM574.178 257V224.273H581.891V257H574.178ZM578.055 219.628C576.834 219.628 575.783 219.223 574.902 218.413C574.021 217.589 573.581 216.602 573.581 215.452C573.581 214.287 574.021 213.3 574.902 212.49C575.783 211.666 576.834 211.254 578.055 211.254C579.291 211.254 580.342 211.666 581.209 212.49C582.089 213.3 582.53 214.287 582.53 215.452C582.53 216.602 582.089 217.589 581.209 218.413C580.342 219.223 579.291 219.628 578.055 219.628ZM595.135 237.824V257H587.422V224.273H594.794V229.834H595.178C595.931 228.001 597.131 226.545 598.779 225.466C600.441 224.386 602.493 223.847 604.936 223.847C607.195 223.847 609.162 224.33 610.838 225.295C612.529 226.261 613.835 227.661 614.759 229.493C615.696 231.325 616.158 233.548 616.144 236.162V257H608.431V237.355C608.431 235.168 607.862 233.456 606.726 232.22C605.604 230.984 604.048 230.366 602.06 230.366C600.71 230.366 599.51 230.665 598.459 231.261C597.422 231.844 596.605 232.689 596.009 233.797C595.426 234.905 595.135 236.247 595.135 237.824ZM631.002 257.661C628.928 257.661 627.06 257.291 625.398 256.553C623.751 255.8 622.444 254.692 621.478 253.229C620.526 251.766 620.05 249.962 620.05 247.817C620.05 245.97 620.391 244.443 621.073 243.236C621.755 242.028 622.685 241.062 623.864 240.338C625.043 239.614 626.371 239.067 627.849 238.697C629.34 238.314 630.881 238.037 632.472 237.866C634.39 237.668 635.945 237.49 637.139 237.334C638.332 237.163 639.198 236.908 639.738 236.567C640.292 236.212 640.569 235.665 640.569 234.926V234.798C640.569 233.193 640.093 231.95 639.141 231.07C638.19 230.189 636.819 229.749 635.029 229.749C633.14 229.749 631.641 230.161 630.533 230.984C629.44 231.808 628.701 232.781 628.317 233.903L621.116 232.881C621.684 230.892 622.621 229.23 623.928 227.895C625.235 226.545 626.833 225.537 628.722 224.869C630.612 224.188 632.7 223.847 634.987 223.847C636.563 223.847 638.133 224.031 639.695 224.401C641.258 224.77 642.685 225.381 643.978 226.233C645.271 227.071 646.308 228.214 647.089 229.663C647.884 231.112 648.282 232.923 648.282 235.097V257H640.867V252.504H640.612C640.143 253.413 639.482 254.266 638.63 255.061C637.792 255.842 636.734 256.474 635.455 256.957C634.191 257.426 632.707 257.661 631.002 257.661ZM633.005 251.993C634.553 251.993 635.896 251.687 637.032 251.077C638.168 250.452 639.042 249.628 639.653 248.605C640.278 247.582 640.59 246.467 640.59 245.26V241.403C640.349 241.602 639.937 241.787 639.354 241.957C638.786 242.128 638.147 242.277 637.437 242.405C636.727 242.533 636.023 242.646 635.327 242.746C634.631 242.845 634.028 242.93 633.516 243.001C632.366 243.158 631.336 243.413 630.427 243.768C629.518 244.124 628.8 244.621 628.275 245.26C627.749 245.885 627.487 246.695 627.487 247.689C627.487 249.109 628.005 250.182 629.042 250.906C630.079 251.631 631.4 251.993 633.005 251.993ZM661.351 237.824V257H653.638V224.273H661.01V229.834H661.393C662.146 228.001 663.346 226.545 664.994 225.466C666.656 224.386 668.709 223.847 671.152 223.847C673.41 223.847 675.378 224.33 677.054 225.295C678.744 226.261 680.051 227.661 680.974 229.493C681.912 231.325 682.373 233.548 682.359 236.162V257H674.646V237.355C674.646 235.168 674.078 233.456 672.942 232.22C671.819 230.984 670.264 230.366 668.275 230.366C666.926 230.366 665.726 230.665 664.675 231.261C663.638 231.844 662.821 232.689 662.224 233.797C661.642 234.905 661.351 236.247 661.351 237.824ZM702.076 257.639C698.809 257.639 696.003 256.922 693.66 255.487C691.33 254.053 689.533 252.071 688.269 249.543C687.019 247 686.394 244.074 686.394 240.764C686.394 237.44 687.033 234.507 688.312 231.964C689.59 229.408 691.394 227.419 693.723 225.999C696.067 224.564 698.837 223.847 702.033 223.847C704.689 223.847 707.04 224.337 709.086 225.317C711.145 226.283 712.786 227.653 714.008 229.429C715.229 231.19 715.925 233.25 716.096 235.608H708.723C708.425 234.031 707.715 232.717 706.593 231.666C705.485 230.601 704 230.068 702.14 230.068C700.563 230.068 699.178 230.494 697.985 231.347C696.792 232.185 695.861 233.392 695.194 234.969C694.54 236.545 694.214 238.435 694.214 240.636C694.214 242.866 694.54 244.784 695.194 246.389C695.847 247.98 696.763 249.209 697.942 250.075C699.135 250.928 700.535 251.354 702.14 251.354C703.276 251.354 704.292 251.141 705.187 250.714C706.096 250.274 706.856 249.642 707.466 248.818C708.077 247.994 708.496 246.993 708.723 245.814H716.096C715.911 248.129 715.229 250.182 714.05 251.972C712.871 253.747 711.266 255.139 709.235 256.148C707.204 257.142 704.817 257.639 702.076 257.639ZM720.029 257V224.273H727.742V257H720.029ZM723.907 219.628C722.685 219.628 721.634 219.223 720.754 218.413C719.873 217.589 719.433 216.602 719.433 215.452C719.433 214.287 719.873 213.3 720.754 212.49C721.634 211.666 722.685 211.254 723.907 211.254C725.143 211.254 726.194 211.666 727.06 212.49C727.941 213.3 728.381 214.287 728.381 215.452C728.381 216.602 727.941 217.589 727.06 218.413C726.194 219.223 725.143 219.628 723.907 219.628ZM742.691 257.661C740.617 257.661 738.749 257.291 737.088 256.553C735.44 255.8 734.133 254.692 733.167 253.229C732.215 251.766 731.74 249.962 731.74 247.817C731.74 245.97 732.08 244.443 732.762 243.236C733.444 242.028 734.374 241.062 735.553 240.338C736.732 239.614 738.061 239.067 739.538 238.697C741.029 238.314 742.57 238.037 744.161 237.866C746.079 237.668 747.634 237.49 748.828 237.334C750.021 237.163 750.887 236.908 751.427 236.567C751.981 236.212 752.258 235.665 752.258 234.926V234.798C752.258 233.193 751.782 231.95 750.83 231.07C749.879 230.189 748.508 229.749 746.718 229.749C744.829 229.749 743.33 230.161 742.222 230.984C741.129 231.808 740.39 232.781 740.007 233.903L732.805 232.881C733.373 230.892 734.311 229.23 735.617 227.895C736.924 226.545 738.522 225.537 740.411 224.869C742.301 224.188 744.389 223.847 746.676 223.847C748.252 223.847 749.822 224.031 751.384 224.401C752.947 224.77 754.374 225.381 755.667 226.233C756.96 227.071 757.997 228.214 758.778 229.663C759.573 231.112 759.971 232.923 759.971 235.097V257H752.556V252.504H752.301C751.832 253.413 751.171 254.266 750.319 255.061C749.481 255.842 748.423 256.474 747.144 256.957C745.88 257.426 744.396 257.661 742.691 257.661ZM744.694 251.993C746.242 251.993 747.585 251.687 748.721 251.077C749.857 250.452 750.731 249.628 751.342 248.605C751.967 247.582 752.279 246.467 752.279 245.26V241.403C752.038 241.602 751.626 241.787 751.044 241.957C750.475 242.128 749.836 242.277 749.126 242.405C748.416 242.533 747.713 242.646 747.017 242.746C746.32 242.845 745.717 242.93 745.205 243.001C744.055 243.158 743.025 243.413 742.116 243.768C741.207 244.124 740.49 244.621 739.964 245.26C739.438 245.885 739.176 246.695 739.176 247.689C739.176 249.109 739.694 250.182 740.731 250.906C741.768 251.631 743.089 251.993 744.694 251.993ZM773.04 213.364V257H765.327V213.364H773.04ZM307.184 282.364V326H299.279V282.364H307.184ZM320.716 306.824V326H313.003V293.273H320.375V298.834H320.759C321.511 297.001 322.712 295.545 324.359 294.466C326.021 293.386 328.074 292.847 330.517 292.847C332.776 292.847 334.743 293.33 336.419 294.295C338.109 295.261 339.416 296.661 340.34 298.493C341.277 300.325 341.739 302.548 341.725 305.162V326H334.011V306.355C334.011 304.168 333.443 302.456 332.307 301.22C331.185 299.984 329.629 299.366 327.641 299.366C326.291 299.366 325.091 299.665 324.04 300.261C323.003 300.844 322.186 301.689 321.59 302.797C321.007 303.905 320.716 305.247 320.716 306.824ZM363.742 293.273V299.239H344.396V293.273H363.742ZM349.232 326V290.183C349.232 287.982 349.687 286.149 350.596 284.686C351.519 283.223 352.755 282.129 354.303 281.405C355.852 280.68 357.57 280.318 359.459 280.318C360.795 280.318 361.981 280.425 363.018 280.638C364.055 280.851 364.822 281.043 365.319 281.213L363.785 287.179C363.458 287.08 363.046 286.98 362.549 286.881C362.052 286.767 361.498 286.71 360.887 286.71C359.452 286.71 358.437 287.058 357.84 287.754C357.258 288.436 356.967 289.416 356.967 290.695V326H349.232ZM367.383 326V293.273H374.861V298.727H375.202C375.799 296.838 376.822 295.382 378.27 294.359C379.733 293.322 381.403 292.804 383.278 292.804C383.704 292.804 384.179 292.825 384.705 292.868C385.245 292.896 385.692 292.946 386.047 293.017V300.112C385.721 299.999 385.202 299.899 384.492 299.814C383.796 299.714 383.121 299.665 382.468 299.665C381.062 299.665 379.797 299.97 378.675 300.581C377.567 301.178 376.694 302.009 376.054 303.074C375.415 304.139 375.096 305.368 375.096 306.76V326H367.383ZM397.603 326.661C395.529 326.661 393.662 326.291 392 325.553C390.352 324.8 389.045 323.692 388.079 322.229C387.127 320.766 386.652 318.962 386.652 316.817C386.652 314.97 386.993 313.443 387.674 312.236C388.356 311.028 389.287 310.062 390.466 309.338C391.645 308.614 392.973 308.067 394.45 307.697C395.941 307.314 397.483 307.037 399.074 306.866C400.991 306.668 402.547 306.49 403.74 306.334C404.933 306.163 405.799 305.908 406.339 305.567C406.893 305.212 407.17 304.665 407.17 303.926V303.798C407.17 302.193 406.694 300.95 405.743 300.07C404.791 299.189 403.42 298.749 401.63 298.749C399.741 298.749 398.243 299.161 397.135 299.984C396.041 300.808 395.302 301.781 394.919 302.903L387.717 301.881C388.285 299.892 389.223 298.23 390.529 296.895C391.836 295.545 393.434 294.537 395.324 293.869C397.213 293.188 399.301 292.847 401.588 292.847C403.164 292.847 404.734 293.031 406.297 293.401C407.859 293.77 409.287 294.381 410.579 295.233C411.872 296.071 412.909 297.214 413.69 298.663C414.485 300.112 414.883 301.923 414.883 304.097V326H407.468V321.504H407.213C406.744 322.413 406.083 323.266 405.231 324.061C404.393 324.842 403.335 325.474 402.056 325.957C400.792 326.426 399.308 326.661 397.603 326.661ZM399.606 320.993C401.154 320.993 402.497 320.687 403.633 320.077C404.77 319.452 405.643 318.628 406.254 317.605C406.879 316.582 407.191 315.467 407.191 314.26V310.403C406.95 310.602 406.538 310.787 405.956 310.957C405.387 311.128 404.748 311.277 404.038 311.405C403.328 311.533 402.625 311.646 401.929 311.746C401.233 311.845 400.629 311.93 400.118 312.001C398.967 312.158 397.937 312.413 397.028 312.768C396.119 313.124 395.402 313.621 394.876 314.26C394.35 314.885 394.088 315.695 394.088 316.689C394.088 318.109 394.606 319.182 395.643 319.906C396.68 320.631 398.001 320.993 399.606 320.993ZM446.105 301.923L439.074 302.69C438.875 301.98 438.527 301.312 438.03 300.688C437.547 300.062 436.894 299.558 436.07 299.175C435.246 298.791 434.237 298.599 433.044 298.599C431.439 298.599 430.09 298.947 428.996 299.643C427.916 300.339 427.384 301.241 427.398 302.349C427.384 303.301 427.732 304.075 428.442 304.672C429.166 305.268 430.36 305.759 432.021 306.142L437.604 307.335C440.7 308.003 443.002 309.061 444.507 310.51C446.027 311.959 446.794 313.855 446.808 316.199C446.794 318.259 446.191 320.077 444.997 321.653C443.818 323.216 442.178 324.437 440.075 325.318C437.973 326.199 435.558 326.639 432.831 326.639C428.825 326.639 425.601 325.801 423.158 324.125C420.715 322.435 419.259 320.084 418.79 317.072L426.311 316.348C426.652 317.825 427.377 318.94 428.485 319.693C429.593 320.446 431.034 320.822 432.81 320.822C434.642 320.822 436.112 320.446 437.22 319.693C438.343 318.94 438.904 318.01 438.904 316.902C438.904 315.964 438.541 315.19 437.817 314.58C437.107 313.969 435.999 313.5 434.493 313.173L428.911 312.001C425.771 311.348 423.449 310.247 421.943 308.699C420.438 307.136 419.692 305.162 419.706 302.776C419.692 300.759 420.239 299.011 421.347 297.534C422.469 296.043 424.024 294.892 426.013 294.082C428.016 293.259 430.324 292.847 432.938 292.847C436.773 292.847 439.791 293.663 441.993 295.297C444.209 296.93 445.58 299.139 446.105 301.923ZM467.111 293.273V299.239H448.297V293.273H467.111ZM452.942 285.432H460.655V316.156C460.655 317.193 460.811 317.989 461.124 318.543C461.45 319.082 461.877 319.452 462.402 319.651C462.928 319.849 463.51 319.949 464.149 319.949C464.632 319.949 465.073 319.913 465.47 319.842C465.882 319.771 466.195 319.707 466.408 319.651L467.707 325.68C467.296 325.822 466.706 325.979 465.939 326.149C465.186 326.32 464.263 326.419 463.169 326.447C461.237 326.504 459.497 326.213 457.949 325.574C456.401 324.92 455.172 323.912 454.263 322.548C453.368 321.185 452.928 319.48 452.942 317.435V285.432ZM471.161 326V293.273H478.64V298.727H478.981C479.578 296.838 480.6 295.382 482.049 294.359C483.512 293.322 485.181 292.804 487.056 292.804C487.483 292.804 487.958 292.825 488.484 292.868C489.024 292.896 489.471 292.946 489.826 293.017V300.112C489.5 299.999 488.981 299.899 488.271 299.814C487.575 299.714 486.9 299.665 486.247 299.665C484.84 299.665 483.576 299.97 482.454 300.581C481.346 301.178 480.473 302.009 479.833 303.074C479.194 304.139 478.875 305.368 478.875 306.76V326H471.161ZM513.41 312.236V293.273H521.123V326H513.644V320.183H513.303C512.565 322.016 511.35 323.514 509.66 324.679C507.984 325.844 505.917 326.426 503.46 326.426C501.315 326.426 499.418 325.95 497.771 324.999C496.137 324.033 494.859 322.634 493.936 320.801C493.012 318.955 492.551 316.724 492.551 314.111V293.273H500.264V312.918C500.264 314.991 500.832 316.639 501.968 317.861C503.105 319.082 504.596 319.693 506.443 319.693C507.579 319.693 508.68 319.416 509.745 318.862C510.811 318.308 511.684 317.484 512.366 316.391C513.062 315.283 513.41 313.898 513.41 312.236ZM540.93 326.639C537.663 326.639 534.858 325.922 532.514 324.487C530.184 323.053 528.387 321.071 527.123 318.543C525.873 316 525.248 313.074 525.248 309.764C525.248 306.44 525.887 303.507 527.166 300.964C528.444 298.408 530.248 296.419 532.578 294.999C534.922 293.564 537.691 292.847 540.887 292.847C543.544 292.847 545.895 293.337 547.94 294.317C550 295.283 551.64 296.653 552.862 298.429C554.083 300.19 554.779 302.25 554.95 304.608H547.578C547.279 303.031 546.569 301.717 545.447 300.666C544.339 299.601 542.855 299.068 540.994 299.068C539.417 299.068 538.032 299.494 536.839 300.347C535.646 301.185 534.716 302.392 534.048 303.969C533.395 305.545 533.068 307.435 533.068 309.636C533.068 311.866 533.395 313.784 534.048 315.389C534.701 316.98 535.618 318.209 536.797 319.075C537.99 319.928 539.389 320.354 540.994 320.354C542.13 320.354 543.146 320.141 544.041 319.714C544.95 319.274 545.71 318.642 546.321 317.818C546.931 316.994 547.35 315.993 547.578 314.814H554.95C554.765 317.129 554.083 319.182 552.904 320.972C551.725 322.747 550.12 324.139 548.089 325.148C546.058 326.142 543.672 326.639 540.93 326.639ZM575.226 293.273V299.239H556.412V293.273H575.226ZM561.057 285.432H568.77V316.156C568.77 317.193 568.926 317.989 569.238 318.543C569.565 319.082 569.991 319.452 570.517 319.651C571.042 319.849 571.625 319.949 572.264 319.949C572.747 319.949 573.187 319.913 573.585 319.842C573.997 319.771 574.309 319.707 574.523 319.651L575.822 325.68C575.41 325.822 574.821 325.979 574.054 326.149C573.301 326.32 572.378 326.419 571.284 326.447C569.352 326.504 567.612 326.213 566.064 325.574C564.515 324.92 563.287 323.912 562.378 322.548C561.483 321.185 561.042 319.48 561.057 317.435V285.432ZM600.136 312.236V293.273H607.849V326H600.37V320.183H600.029C599.291 322.016 598.076 323.514 596.386 324.679C594.71 325.844 592.643 326.426 590.185 326.426C588.041 326.426 586.144 325.95 584.497 324.999C582.863 324.033 581.585 322.634 580.661 320.801C579.738 318.955 579.276 316.724 579.276 314.111V293.273H586.989V312.918C586.989 314.991 587.558 316.639 588.694 317.861C589.83 319.082 591.322 319.693 593.168 319.693C594.305 319.693 595.406 319.416 596.471 318.862C597.536 318.308 598.41 317.484 599.092 316.391C599.788 315.283 600.136 313.898 600.136 312.236ZM613.38 326V293.273H620.859V298.727H621.2C621.796 296.838 622.819 295.382 624.268 294.359C625.731 293.322 627.4 292.804 629.275 292.804C629.701 292.804 630.177 292.825 630.703 292.868C631.243 292.896 631.69 292.946 632.045 293.017V300.112C631.718 299.999 631.2 299.899 630.49 299.814C629.794 299.714 629.119 299.665 628.466 299.665C627.059 299.665 625.795 299.97 624.673 300.581C623.565 301.178 622.691 302.009 622.052 303.074C621.413 304.139 621.093 305.368 621.093 306.76V326H613.38ZM647.91 326.639C644.629 326.639 641.795 325.957 639.409 324.594C637.037 323.216 635.211 321.27 633.933 318.756C632.655 316.227 632.015 313.251 632.015 309.828C632.015 306.462 632.655 303.507 633.933 300.964C635.226 298.408 637.03 296.419 639.345 294.999C641.66 293.564 644.38 292.847 647.505 292.847C649.523 292.847 651.426 293.173 653.216 293.827C655.02 294.466 656.611 295.46 657.988 296.81C659.38 298.159 660.474 299.878 661.27 301.966C662.065 304.04 662.463 306.511 662.463 309.381V311.746H635.638V306.547H655.069C655.055 305.07 654.736 303.756 654.111 302.605C653.486 301.44 652.612 300.524 651.49 299.857C650.382 299.189 649.089 298.855 647.612 298.855C646.035 298.855 644.65 299.239 643.457 300.006C642.264 300.759 641.334 301.753 640.666 302.989C640.013 304.21 639.679 305.553 639.665 307.016V311.554C639.665 313.457 640.013 315.091 640.709 316.455C641.405 317.804 642.378 318.841 643.628 319.565C644.878 320.276 646.341 320.631 648.017 320.631C649.139 320.631 650.155 320.474 651.064 320.162C651.973 319.835 652.761 319.359 653.429 318.734C654.096 318.109 654.601 317.335 654.942 316.412L662.143 317.222C661.689 319.125 660.822 320.787 659.544 322.207C658.28 323.614 656.66 324.707 654.686 325.489C652.711 326.256 650.453 326.639 647.91 326.639Z" fill="white"/>
</g>
<defs>
<clipPath id="clip0_3440_6156">
<rect width="960" height="540" fill="white"/>
</clipPath>
</defs>
</svg>
