<svg width="644" height="121" viewBox="0 0 644 121" fill="none" xmlns="http://www.w3.org/2000/svg">
<g clip-path="url(#clip0_16234_8196)">
<path d="M61.3046 0C43.8878 0 0.992188 43.0276 0.992188 60.4996C0.992188 77.9716 43.8878 121 61.3046 121C78.7218 121 121.618 77.9709 121.618 60.4996C121.618 43.0284 78.7222 0 61.3046 0ZM51.906 95.0954C44.5614 93.0879 24.815 58.4392 26.8167 51.0718C28.8184 43.7041 63.3593 23.8967 70.7036 25.9046C78.0486 27.9122 97.7952 62.5604 95.7935 69.9282C93.7918 77.2956 59.2506 97.1033 51.906 95.0954Z" fill="#836EF9"/>
<path d="M205.927 73.9102V73.8883L171.657 10.4841C170.982 9.23605 169.118 9.53496 168.865 10.9317L151.798 105.098C151.631 106.02 152.338 106.87 153.272 106.87H166.477C167.201 106.87 167.822 106.35 167.951 105.635L177.891 50.6907L204.605 101.779C205.167 102.852 206.698 102.852 207.26 101.779L233.974 50.6907L243.914 105.635C244.043 106.35 244.664 106.87 245.388 106.87H258.593C259.528 106.87 260.234 106.02 260.067 105.098L243 10.9317C242.747 9.53496 240.883 9.23605 240.208 10.4841L205.927 73.9102Z" fill="black"/>
<path d="M315.587 12.2573C288.404 12.2573 267.109 33.4471 267.109 60.5034C267.109 87.5598 288.404 108.761 315.587 108.761C342.701 108.761 363.942 87.5654 363.942 60.5034C363.942 33.4412 342.701 12.2573 315.587 12.2573ZM315.587 92.6066C297.861 92.6066 283.972 78.5037 283.972 60.5034C283.972 42.5031 297.861 28.412 315.587 28.412C333.244 28.412 347.08 42.5092 347.08 60.5034C347.08 78.4976 333.244 92.6066 315.587 92.6066Z" fill="black"/>
<path d="M438.664 71.5704L381.818 10.1973C380.893 9.19642 379.223 9.8544 379.223 11.2206V105.366C379.223 106.196 379.893 106.869 380.723 106.869H394.463C395.292 106.869 395.963 106.196 395.963 105.366V49.3313L452.68 110.82C453.605 111.824 455.279 111.167 455.279 109.799V15.6537C455.279 14.8235 454.609 14.1504 453.779 14.1504H440.16C439.334 14.1504 438.664 14.8235 438.664 15.6537V71.5704Z" fill="black"/>
<path d="M469.852 106.871H484.607C485.19 106.871 485.724 106.53 485.967 105.998L497.021 81.9843H532.369L543.173 105.986C543.415 106.525 543.949 106.871 544.54 106.871H560.55C561.656 106.871 562.379 105.712 561.898 104.713L516.549 10.574C516.004 9.44164 514.397 9.44164 513.852 10.574L468.503 104.713C468.022 105.712 468.745 106.871 469.852 106.871ZM503.95 67.0854L514.935 43.1717L525.717 67.0854H503.95Z" fill="black"/>
<path d="M597.712 14.1515H575.035C574.21 14.1515 573.539 14.8245 573.539 15.6548V105.367C573.539 106.197 574.21 106.87 575.035 106.87H597.712C625.824 106.87 643.292 89.1059 643.292 60.5049C643.292 31.904 625.824 14.1515 597.712 14.1515ZM597.712 90.9633H590.401V29.9348H597.712C615.964 29.9348 626.43 41.078 626.43 60.5049C626.43 79.8611 615.964 90.9633 597.712 90.9633Z" fill="black"/>
</g>
<defs>
<clipPath id="clip0_16234_8196">
<rect width="644" height="121" fill="white"/>
</clipPath>
</defs>
</svg>
