<svg width="353" height="200" viewBox="0 0 353 200" fill="none" xmlns="http://www.w3.org/2000/svg">
<rect width="353" height="200" fill="#F9F9F8"/>
<path d="M125.853 112.089L120.096 92.5737H125.589L130.991 112.743H129.718L134.158 95.5596C134.422 94.5342 134.93 93.723 135.673 93.1202C136.422 92.5173 137.307 92.2188 138.332 92.2188C139.358 92.2188 140.287 92.5173 141.037 93.1202C141.786 93.723 142.287 94.5342 142.552 95.5596L147.037 112.743H145.808L151.127 92.5737H156.575L150.862 112.084C150.158 114.484 148.71 115.689 146.513 115.689C144.315 115.689 142.777 114.489 142.163 112.084L137.769 94.9004H138.913L134.473 112.084C134.18 113.199 133.69 114.078 133.003 114.72C132.315 115.362 131.386 115.689 130.214 115.689C127.989 115.689 126.535 114.489 125.865 112.084L125.853 112.089Z" fill="#2D2C2C"/>
<path d="M163.228 114.265C161.369 113.195 159.91 111.752 158.857 109.938C157.803 108.124 157.273 106.113 157.273 103.916C157.273 101.719 157.803 99.713 158.857 97.8933C159.91 96.0792 161.369 94.637 163.228 93.5666C165.088 92.4961 167.161 91.9609 169.448 91.9609C171.735 91.9609 173.848 92.4961 175.707 93.5666C177.566 94.637 179.026 96.0792 180.079 97.8933C181.133 99.713 181.662 101.719 181.662 103.916C181.662 106.113 181.133 108.119 180.079 109.938C179.026 111.752 177.566 113.2 175.707 114.265C173.848 115.336 171.758 115.871 169.448 115.871C167.138 115.871 165.088 115.336 163.228 114.265ZM173.071 110.243C174.107 109.6 174.924 108.722 175.51 107.606C176.096 106.491 176.389 105.262 176.389 103.916C176.389 102.569 176.096 101.302 175.51 100.203C174.924 99.1046 174.113 98.2314 173.071 97.5891C172.028 96.9469 170.834 96.6201 169.488 96.6201C168.141 96.6201 166.947 96.9412 165.904 97.5891C164.862 98.2314 164.051 99.1102 163.465 100.226C162.879 101.341 162.586 102.569 162.586 103.916C162.586 105.262 162.879 106.53 163.465 107.629C164.051 108.727 164.862 109.6 165.904 110.243C166.941 110.885 168.135 111.212 169.488 111.212C170.84 111.212 172.028 110.891 173.071 110.243Z" fill="#2D2C2C"/>
<path d="M184.646 92.5755H189.83V99.0375L189.435 98.5079C189.785 96.4853 190.68 94.9417 192.117 93.8713C193.554 92.8008 195.249 92.2656 197.215 92.2656H197.39V97.4938H197.261C194.889 97.522 193.063 98.1304 191.79 99.3191C190.517 100.508 189.88 102.446 189.88 105.139V115.246H184.652V92.5755H184.646Z" fill="#2D2C2C"/>
<path d="M202.536 113.605C201.218 112.416 200.559 110.568 200.559 108.044V83.875H205.787V107.385C205.787 108.585 206.029 109.475 206.514 110.044C206.998 110.613 207.837 110.917 209.043 110.945V115.385H208.514C205.849 115.385 203.854 114.793 202.536 113.605Z" fill="#2D2C2C"/>
<path d="M215.167 114.326C213.427 113.3 212.075 111.881 211.122 110.061C210.17 108.247 209.691 106.196 209.691 103.909C209.691 101.621 210.176 99.6102 211.139 97.7792C212.108 95.9482 213.46 94.5229 215.201 93.4975C216.942 92.4722 218.942 91.9595 221.201 91.9595C223.336 91.9595 225.19 92.4947 226.762 93.5651C228.328 94.6356 229.303 96.0215 229.686 97.7173L228.677 97.5426V83.875H233.905V115.25H228.677V109.627L229.646 110.112C229.41 111.193 228.897 112.185 228.108 113.081C227.32 113.976 226.322 114.664 225.122 115.148C223.922 115.633 222.615 115.875 221.213 115.875C218.925 115.875 216.914 115.362 215.173 114.337L215.167 114.326ZM225.472 110.331C226.525 109.689 227.348 108.799 227.934 107.672C228.52 106.545 228.813 105.295 228.813 103.914C228.813 102.534 228.52 101.283 227.934 100.157C227.348 99.0299 226.525 98.1454 225.472 97.4975C224.418 96.8553 223.201 96.5285 221.827 96.5285C220.452 96.5285 219.246 96.8496 218.221 97.4975C217.196 98.1398 216.401 99.0299 215.849 100.157C215.291 101.283 215.015 102.54 215.015 103.914C215.015 105.289 215.291 106.545 215.849 107.672C216.407 108.799 217.196 109.689 218.221 110.331C219.246 110.974 220.446 111.3 221.827 111.3C223.207 111.3 224.418 110.979 225.472 110.331Z" fill="#2D2C2C"/>
</svg>
