<?xml version="1.0" encoding="UTF-8"?>
<svg xmlns="http://www.w3.org/2000/svg" version="1.1" viewBox="0 0 540 271">
  <defs>
    <style>
      .cls-1 {
        fill: #121212;
      }

      .cls-2 {
        fill: #fff068;
      }
    </style>
  </defs>
  <!-- Generator: Adobe Illustrator 28.7.1, SVG Export Plug-In . SVG Version: 1.2.0 Build 142)  -->
  <g>
    <g id="Layer_1">
      <rect class="cls-2" y="0" width="539.6" height="270.1"/>
      <path class="cls-1" d="M177.2,189.7h-16.2v-78.8h16.2v78.8Z"/>
      <path class="cls-1" d="M235.7,109.4c8.9,0,16.2,3.1,21.9,9.4,5.7,6.3,8.5,14.2,8.5,23.9v47h-16.2v-44.6c0-6.1-2-11.1-5.9-15-3.9-4-8.7-5.9-14.5-5.9s-11.8,2-15.9,5.9c-4.1,4-6.2,9-6.2,15v44.6h-16.2v-78.8h16.2v20.4c2.2-6.8,5.7-12.1,10.7-16,5-3.9,10.8-5.9,17.5-5.9h0Z"/>
      <path class="cls-1" d="M316.6,109.4c12.6,0,22.9,4.5,30.8,13.6,7.9,9.1,11.2,20,9.7,32.8h-65.2c1.1,6.4,4.1,11.5,8.8,15.5,4.7,4,10.4,5.9,17.1,5.9s9.7-1.3,13.8-3.8c4.1-2.5,7.2-5.9,9.5-10.3l13.6,6c-3.5,6.7-8.5,12-15,16-6.5,4-13.9,6-22.4,6s-21.7-3.9-29.8-11.7c-8-7.8-12-17.5-12-29.1s3.9-21.4,11.8-29.2c7.9-7.9,17.6-11.8,29.2-11.8h0ZM316.6,123.4c-6,0-11.1,1.8-15.5,5.5-4.4,3.6-7.3,8.4-8.7,14.3h48.4c-1.3-5.9-4.2-10.6-8.6-14.3-4.4-3.6-9.6-5.5-15.7-5.5Z"/>
      <path class="cls-1" d="M401.9,109.4c9.5,0,17.2,2.5,23.1,7.4,6,4.9,8.9,12,8.9,21.3v51.7h-16.2v-21c-4.8,15-14.5,22.5-29.1,22.5s-12.4-2-17-6.1c-4.5-4.1-6.8-9.4-6.8-16s2.7-13.5,8.2-17.3c5.4-3.8,12.4-6.2,20.8-7.2l15.3-1.5c5.8-.5,8.6-3.1,8.6-7.7s-1.5-6.8-4.4-9.1c-2.9-2.3-6.8-3.4-11.5-3.4s-8.9,1.2-12.3,3.7c-3.3,2.5-5.5,6.1-6.4,10.8l-16-3.9c1.4-7.4,5.3-13.3,11.6-17.7,6.3-4.4,14-6.6,23.1-6.6h0ZM393.9,178.2c6.7,0,12.3-2.2,17-6.7,4.6-4.5,6.9-9.7,6.9-15.7v-4.3c-1.2,2.1-4.2,3.3-8.9,3.8l-15,1.8c-3.9.5-7,1.7-9.3,3.5-2.3,1.8-3.5,4.2-3.5,7.3s1.2,5.6,3.5,7.4c2.3,1.8,5.4,2.8,9.3,2.8h0Z"/>
      <path class="cls-1" d="M149.9,189.7h-74.8v-78.8h17.1v63.5h57.7v15.3Z"/>
      <path class="cls-1" d="M449.2,109.4c8.4,0,15.3-6.8,15.3-15.3s-6.8-15.3-15.3-15.3-15.3,6.8-15.3,15.3,6.8,15.3,15.3,15.3Z"/>
    </g>
  </g>
</svg>