<svg width="137" height="40" viewBox="0 0 137 40" fill="none" xmlns="http://www.w3.org/2000/svg">
  <path d="M36.3603 39.2791H30.732V11.8905H36.3603V39.2791Z" fill="#190066" />
  <path
    d="M56.6973 11.3529C59.8043 11.3529 62.3426 12.4423 64.3092 14.6212C66.273 16.8001 67.2577 19.5703 67.2577 22.9292V39.2763H61.6295V23.7866C61.6295 21.6785 60.9504 19.9354 59.5921 18.5601C58.2339 17.1849 56.5558 16.4973 54.5553 16.4973C52.3028 16.4973 50.4635 17.1849 49.0345 18.5601C47.6055 19.9354 46.8896 21.6785 46.8896 23.7866V39.2763H41.2614V11.8905H46.8896V18.9648C47.6395 16.6076 48.8817 14.7485 50.6163 13.3903C52.3481 12.032 54.377 11.3529 56.7002 11.3529H56.6973Z"
    fill="#190066" />
  <path
    d="M84.8047 11.3529C89.1992 11.3529 92.7731 12.9262 95.5235 16.07C98.274 19.2166 99.4002 23.0197 98.8993 27.4878H76.2279C76.6212 29.7035 77.6399 31.5003 79.2839 32.8755C80.928 34.2508 82.9088 34.9384 85.2319 34.9384C87.0175 34.9384 88.6162 34.4998 90.0283 33.6254C91.4403 32.751 92.5382 31.5626 93.3249 30.06L98.042 32.1511C96.828 34.4743 95.0934 36.3306 92.8438 37.7256C90.5942 39.1207 88.0022 39.8168 85.0706 39.8168C80.9619 39.8168 77.5125 38.4585 74.7253 35.7449C71.938 33.0312 70.543 29.6525 70.543 25.6146C70.543 21.5766 71.9097 18.1923 74.6432 15.456C77.3767 12.7225 80.761 11.3557 84.8018 11.3557L84.8047 11.3529ZM84.8047 16.2313C82.7305 16.2313 80.9365 16.8651 79.4169 18.1357C77.8974 19.4034 76.8872 21.0559 76.3892 23.0933H93.2202C92.7561 21.0559 91.7629 19.4034 90.2462 18.1357C88.7266 16.868 86.9128 16.2313 84.8047 16.2313Z"
    fill="#190066" />
  <path
    d="M114.46 11.3529C117.748 11.3529 120.428 12.2103 122.499 13.9251C124.57 15.6399 125.609 18.1074 125.609 21.3219V39.2791H119.981V31.9898C118.3 37.2078 114.924 39.8168 109.85 39.8168C107.49 39.8168 105.526 39.1122 103.953 37.7002C102.38 36.2882 101.596 34.4404 101.596 32.154C101.596 29.4743 102.541 27.4623 104.437 26.1239C106.33 24.7855 108.744 23.9535 111.673 23.6309L116.978 23.0933C118.979 22.915 119.981 22.0208 119.981 20.4136C119.981 19.0921 119.471 18.0366 118.453 17.2528C117.434 16.4662 116.104 16.0728 114.46 16.0728C112.816 16.0728 111.358 16.5029 110.198 17.3603C109.038 18.2177 108.297 19.4685 107.974 21.1125L102.4 19.7712C102.901 17.199 104.239 15.1532 106.421 13.6336C108.6 12.1169 111.279 11.3557 114.46 11.3557V11.3529ZM111.673 35.2581C113.996 35.2581 115.96 34.48 117.567 32.9265C119.174 31.373 119.978 29.5591 119.978 27.485V25.9852C119.55 26.7012 118.512 27.1454 116.868 27.3237L111.67 27.966C110.311 28.1471 109.231 28.5461 108.427 29.1715C107.623 29.7968 107.221 30.6457 107.221 31.7182C107.221 32.7907 107.623 33.648 108.427 34.2904C109.231 34.9327 110.311 35.2553 111.67 35.2553L111.673 35.2581Z"
    fill="#190066" />
  <path d="M26.8554 39.2791H0.859009V11.8905H6.80702V33.9734H26.8554V39.2791Z" fill="#190066" />
  <path
    d="M130.914 11.3529C133.845 11.3529 136.22 8.97743 136.22 6.04719C136.22 3.11695 133.845 0.741516 130.914 0.741516C127.984 0.741516 125.609 3.11695 125.609 6.04719C125.609 8.97743 127.984 11.3529 130.914 11.3529Z"
    fill="#190066" />
</svg>
  