<svg width="216" height="122" viewBox="0 0 216 122" fill="none" xmlns="http://www.w3.org/2000/svg">
<rect width="216" height="122" fill="#E5FF5D"/>
<path d="M177.272 66.9315C175.581 64.4745 173.657 63.0717 171.233 62.5281C171.112 61.8693 171.052 61.2488 171.052 60.6394C171.052 59.9586 171.087 59.2915 171.159 58.6546C173.1 58.1769 174.667 57.0871 175.946 55.3219L182.925 45.5269H177.698L172.938 52.4888C171.727 54.2265 170.983 56.096 170.667 58.1989C170.165 58.2895 169.605 58.3334 168.88 58.3334C168.155 58.3334 167.595 58.2922 167.093 58.1989C166.777 56.096 166.033 54.2265 164.823 52.4915L160.06 45.5269H154.833L161.811 55.3246C163.088 57.0871 164.655 58.1769 166.596 58.6546C166.668 59.2887 166.703 59.9558 166.703 60.6394C166.703 61.2488 166.643 61.8665 166.522 62.5254C164.134 63.0168 162.154 64.4608 160.48 66.9315L153.652 76.9873H158.734L164.334 68.4277C165.715 66.3138 166.599 64.7298 166.983 62.9948C167.551 62.9015 168.172 62.8548 168.872 62.8548C169.572 62.8548 170.192 62.9015 170.761 62.9948C171.145 64.7298 172.029 66.3138 173.41 68.4277L179.01 76.9873H184.092L177.264 66.9315H177.272Z" fill="#111111"/>
<path d="M134.081 72.9739V62.5722H150.11V58.5779H134.081V49.5021H151.656V45.5078H129.469V54.5699C129.469 57.6363 131.083 58.5779 134.081 58.5779V62.5722C131.278 62.5722 129.469 64.0547 129.469 66.9344V76.9683H151.656V72.9739H134.081Z" fill="#111111"/>
<path d="M118.73 49.9359C116.992 46.9573 114.197 45.5078 110.192 45.5078H99.4883V76.9683H110.192C113.95 76.9683 116.759 75.4941 118.548 72.5869C123.056 70.7997 125.436 66.8466 125.436 61.1502C125.436 55.4538 123.117 51.767 118.73 49.9359ZM112.358 73.1057H103.491V49.3676H112.358C114.669 49.3676 116.684 49.7053 118.348 50.3724C119.718 52.8129 120.385 56.3405 120.385 61.1502C120.385 65.9599 119.663 69.5753 118.175 72.1449C116.476 72.7845 114.518 73.1085 112.358 73.1085V73.1057Z" fill="#111111"/>
<path d="M88.8507 49.9222C87.113 46.6554 84.1948 45 80.173 45C76.1512 45 73.1836 46.702 71.4486 50.0567C67.1551 52.1047 64.8848 55.9453 64.8848 61.1722C64.8848 66.3992 67.2621 70.4566 71.7643 72.5567C73.6284 75.851 76.4587 77.5201 80.173 77.5201C84.2113 77.5201 87.1322 75.8345 88.8535 72.5101C93.1772 70.5115 95.4613 66.5913 95.4613 61.1722C95.4613 55.7531 93.2376 51.9482 88.8507 49.9222ZM80.173 73.6137C77.0764 73.6137 74.3778 73.114 72.1569 72.1312C70.6855 69.3942 69.9388 65.7074 69.9388 61.1722C69.9388 56.6371 70.5839 52.9859 71.8522 50.474C74.0868 49.4198 76.9611 48.8626 80.173 48.8626C83.3849 48.8626 86.2263 49.3622 88.4527 50.345C89.7676 52.9063 90.4073 56.4504 90.4073 61.1722C90.4073 65.894 89.7484 69.5589 88.4499 72.09C86.2592 73.1003 83.4728 73.6137 80.173 73.6137Z" fill="#111111"/>
<path d="M57.7196 65.2242L57.7114 65.4905C57.6263 68.2028 57.2035 70.4649 56.4513 72.2218C54.2963 73.1442 51.7076 73.6137 48.7564 73.6137C45.8053 73.6137 43.0655 73.1003 40.8776 72.09C39.6065 69.4958 38.9614 65.8227 38.9614 61.1695C38.9614 56.5163 39.6477 52.8047 41.0039 50.2105C43.0985 49.3128 45.7037 48.8598 48.7537 48.8598C51.6087 48.8598 54.0932 49.2689 56.1439 50.0787C56.789 51.5282 57.2255 53.3949 57.4451 55.6323L57.4698 55.8794H62.6089L62.4799 55.5143C61.5712 52.9255 59.5233 50.9023 56.5529 49.6532C55.0897 46.5236 52.5394 45 48.7564 45C44.9735 45 42.3188 46.6115 40.6113 49.7877C36.164 51.7753 33.9102 55.6049 33.9102 61.1722C33.9102 66.7396 36.1805 70.4401 40.474 72.5073C42.1898 75.8345 44.9762 77.5201 48.7564 77.5201C52.5366 77.5201 55.3423 75.8785 56.8659 72.6391C60.0037 71.1731 62.0544 68.7271 62.8011 65.5619L62.8807 65.2242H57.7196Z" fill="#111111"/>
</svg>
