<svg width="1000" height="377" viewBox="0 0 1000 377" fill="none" xmlns="http://www.w3.org/2000/svg">
<rect width="1000" height="377" fill="#E5FF5D"/>
<g clip-path="url(#clip0_4567_19)">
<path d="M869.132 218.092C859.987 204.974 849.583 197.484 836.478 194.582C835.824 191.065 835.499 187.752 835.499 184.499C835.499 180.864 835.692 177.302 836.075 173.901C846.57 171.351 855.045 165.533 861.963 156.108L899.692 103.814H871.433L845.694 140.983C839.149 150.261 835.128 160.242 833.42 171.469C830.704 171.952 827.675 172.187 823.757 172.187C819.839 172.187 816.81 171.967 814.093 171.469C812.389 160.242 808.364 150.261 801.82 140.997L776.068 103.814H747.806L785.538 156.123C792.44 165.533 800.914 171.351 811.409 173.901C811.793 177.287 811.986 180.849 811.986 184.499C811.986 187.752 811.661 191.05 811.006 194.567C798.095 197.191 787.391 204.9 778.34 218.092L741.426 271.779H768.898L799.178 226.079C806.644 214.794 811.422 206.337 813.5 197.074C816.574 196.575 819.929 196.326 823.712 196.326C827.498 196.326 830.852 196.575 833.923 197.074C836.001 206.337 840.783 214.794 848.249 226.079L878.528 271.779H906.001L869.087 218.092H869.132Z" fill="#111111"/>
<path d="M635.572 250.351V194.818H722.24V173.492H635.572V125.037H730.596V103.712H610.639V152.093C610.639 168.465 619.364 173.492 635.572 173.492V194.818C620.418 194.818 610.639 202.732 610.639 218.107V271.677H730.596V250.351H635.572Z" fill="#111111"/>
<path d="M552.587 127.353C543.191 111.451 528.082 103.712 506.426 103.712H448.555V271.677H506.426C526.745 271.677 541.928 263.806 551.608 248.285C575.978 238.743 588.847 217.638 588.847 187.225C588.847 156.813 576.306 137.129 552.587 127.353ZM518.135 251.055H470.195V124.319H518.135C530.634 124.319 541.529 126.122 550.522 129.683C557.93 142.713 561.535 161.547 561.535 187.225C561.535 212.904 557.633 232.207 549.588 245.925C540.401 249.34 529.819 251.07 518.135 251.07V251.055Z" fill="#111111"/>
<path d="M391.04 127.279C381.645 109.838 365.867 101 344.122 101C322.378 101 306.333 110.087 296.952 127.998C273.738 138.931 261.463 159.436 261.463 187.342C261.463 215.249 274.317 236.911 298.659 248.123C308.737 265.711 324.04 274.623 344.122 274.623C365.956 274.623 381.749 265.623 391.055 247.874C414.432 237.204 426.781 216.274 426.781 187.342C426.781 158.41 414.759 138.096 391.04 127.279ZM344.122 253.766C327.38 253.766 312.789 251.099 300.781 245.852C292.826 231.239 288.789 211.555 288.789 187.342C288.789 163.129 292.277 143.636 299.134 130.225C311.216 124.597 326.756 121.622 344.122 121.622C361.488 121.622 376.851 124.289 388.888 129.536C395.998 143.211 399.456 162.133 399.456 187.342C399.456 212.552 395.894 232.118 388.873 245.632C377.029 251.025 361.963 253.766 344.122 253.766Z" fill="#111111"/>
<path d="M222.731 208.975L222.687 210.397C222.226 224.878 219.941 236.955 215.874 246.335C204.222 251.26 190.226 253.766 174.27 253.766C158.314 253.766 143.501 251.025 131.671 245.632C124.799 231.781 121.311 212.17 121.311 187.327C121.311 162.484 125.021 142.669 132.354 128.818C143.679 124.026 157.765 121.607 174.255 121.607C189.691 121.607 203.124 123.791 214.211 128.115C217.699 135.854 220.059 145.82 221.247 157.765L221.381 159.084H249.166L248.468 157.135C243.556 143.314 232.483 132.512 216.423 125.843C208.512 109.134 194.723 101 174.27 101C153.816 101 139.463 109.603 130.231 126.561C106.186 137.172 94 157.619 94 187.342C94 217.066 106.275 236.823 129.489 247.859C138.766 265.623 153.831 274.623 174.27 274.623C194.708 274.623 209.877 265.858 218.115 248.563C235.08 240.736 246.168 227.677 250.205 210.778L250.635 208.975H222.731Z" fill="#111111"/>
</g>
<defs>
<clipPath id="clip0_4567_19">
<rect width="812" height="175" fill="white" transform="translate(94 101)"/>
</clipPath>
</defs>
</svg>
