<svg width="960" height="540" viewBox="0 0 960 540" fill="none" xmlns="http://www.w3.org/2000/svg">
<g clip-path="url(#clip0_3440_5992)">
<rect width="960" height="540" fill="#DAE2F2"/>
<rect width="430" height="430" fill="url(#paint0_radial_3440_5992)"/>
<ellipse cx="479.822" cy="768.821" rx="500" ry="800" transform="rotate(15 479.822 768.821)" stroke="url(#paint1_linear_3440_5992)" stroke-width="3" stroke-linecap="round" stroke-linejoin="round"/>
<ellipse cx="479.821" cy="768.821" rx="500" ry="800" transform="rotate(45 479.821 768.821)" stroke="url(#paint2_linear_3440_5992)" stroke-width="3" stroke-linecap="round" stroke-linejoin="round"/>
<ellipse cx="479.821" cy="768.82" rx="500" ry="800" transform="rotate(75 479.821 768.82)" stroke="url(#paint3_linear_3440_5992)" stroke-width="3" stroke-linecap="round" stroke-linejoin="round"/>
<ellipse cx="479.823" cy="768.82" rx="500" ry="800" transform="rotate(105 479.823 768.82)" stroke="url(#paint4_linear_3440_5992)" stroke-width="3" stroke-linecap="round" stroke-linejoin="round"/>
<ellipse cx="479.822" cy="768.821" rx="500" ry="800" transform="rotate(135 479.822 768.821)" stroke="url(#paint5_linear_3440_5992)" stroke-width="3" stroke-linecap="round" stroke-linejoin="round"/>
<ellipse cx="479.824" cy="768.821" rx="500" ry="800" transform="rotate(165 479.824 768.821)" stroke="url(#paint6_linear_3440_5992)" stroke-width="3" stroke-linecap="round" stroke-linejoin="round"/>
<ellipse cx="479.82" cy="768.822" rx="500" ry="800" stroke="url(#paint7_linear_3440_5992)" stroke-width="3" stroke-linecap="round" stroke-linejoin="round"/>
<ellipse cx="479.821" cy="768.822" rx="500" ry="800" transform="rotate(30 479.821 768.822)" stroke="url(#paint8_linear_3440_5992)" stroke-width="3" stroke-linecap="round" stroke-linejoin="round"/>
<ellipse cx="479.82" cy="768.821" rx="500" ry="800" transform="rotate(60 479.82 768.821)" stroke="url(#paint9_linear_3440_5992)" stroke-width="3" stroke-linecap="round" stroke-linejoin="round"/>
<ellipse cx="479.746" cy="768.821" rx="500" ry="800" transform="rotate(90 479.746 768.821)" stroke="url(#paint10_linear_3440_5992)" stroke-width="3" stroke-linecap="round" stroke-linejoin="round"/>
<ellipse cx="479.82" cy="768.82" rx="500" ry="800" transform="rotate(120 479.82 768.82)" stroke="url(#paint11_linear_3440_5992)" stroke-width="3" stroke-linecap="round" stroke-linejoin="round"/>
<ellipse cx="479.823" cy="768.82" rx="500" ry="800" transform="rotate(150 479.823 768.82)" stroke="url(#paint12_linear_3440_5992)" stroke-width="3" stroke-linecap="round" stroke-linejoin="round"/>
<path d="M195.201 218.364V262H187.296V218.364H195.201ZM208.733 242.824V262H201.02V229.273H208.392V234.834H208.775C209.528 233.001 210.729 231.545 212.376 230.466C214.038 229.386 216.091 228.847 218.534 228.847C220.792 228.847 222.76 229.33 224.436 230.295C226.126 231.261 227.433 232.661 228.356 234.493C229.294 236.325 229.756 238.548 229.741 241.162V262H222.028V242.355C222.028 240.168 221.46 238.456 220.324 237.22C219.202 235.984 217.646 235.366 215.657 235.366C214.308 235.366 213.108 235.665 212.057 236.261C211.02 236.844 210.203 237.689 209.606 238.797C209.024 239.905 208.733 241.247 208.733 242.824ZM249.458 262.639C246.191 262.639 243.385 261.922 241.042 260.487C238.712 259.053 236.915 257.071 235.651 254.543C234.401 252 233.776 249.074 233.776 245.764C233.776 242.44 234.415 239.507 235.694 236.964C236.972 234.408 238.776 232.419 241.106 230.999C243.449 229.564 246.219 228.847 249.415 228.847C252.071 228.847 254.422 229.337 256.468 230.317C258.527 231.283 260.168 232.653 261.39 234.429C262.611 236.19 263.307 238.25 263.478 240.608H256.106C255.807 239.031 255.097 237.717 253.975 236.666C252.867 235.601 251.382 235.068 249.522 235.068C247.945 235.068 246.56 235.494 245.367 236.347C244.174 237.185 243.243 238.392 242.576 239.969C241.922 241.545 241.596 243.435 241.596 245.636C241.596 247.866 241.922 249.784 242.576 251.389C243.229 252.98 244.145 254.209 245.324 255.075C246.517 255.928 247.917 256.354 249.522 256.354C250.658 256.354 251.674 256.141 252.569 255.714C253.478 255.274 254.238 254.642 254.848 253.818C255.459 252.994 255.878 251.993 256.106 250.814H263.478C263.293 253.129 262.611 255.182 261.432 256.972C260.253 258.747 258.648 260.139 256.617 261.148C254.586 262.142 252.199 262.639 249.458 262.639ZM281.687 262.639C278.491 262.639 275.721 261.936 273.377 260.53C271.033 259.124 269.215 257.156 267.922 254.628C266.644 252.099 266.005 249.145 266.005 245.764C266.005 242.384 266.644 239.422 267.922 236.879C269.215 234.337 271.033 232.362 273.377 230.956C275.721 229.55 278.491 228.847 281.687 228.847C284.883 228.847 287.653 229.55 289.996 230.956C292.34 232.362 294.151 234.337 295.43 236.879C296.722 239.422 297.369 242.384 297.369 245.764C297.369 249.145 296.722 252.099 295.43 254.628C294.151 257.156 292.34 259.124 289.996 260.53C287.653 261.936 284.883 262.639 281.687 262.639ZM281.729 256.46C283.462 256.46 284.911 255.984 286.076 255.033C287.241 254.067 288.107 252.774 288.675 251.155C289.258 249.536 289.549 247.732 289.549 245.743C289.549 243.74 289.258 241.929 288.675 240.31C288.107 238.676 287.241 237.376 286.076 236.411C284.911 235.445 283.462 234.962 281.729 234.962C279.954 234.962 278.476 235.445 277.297 236.411C276.133 237.376 275.259 238.676 274.677 240.31C274.109 241.929 273.824 243.74 273.824 245.743C273.824 247.732 274.109 249.536 274.677 251.155C275.259 252.774 276.133 254.067 277.297 255.033C278.476 255.984 279.954 256.46 281.729 256.46ZM301.515 262V229.273H308.994V234.727H309.335C309.931 232.838 310.954 231.382 312.403 230.359C313.866 229.322 315.535 228.804 317.41 228.804C317.836 228.804 318.312 228.825 318.837 228.868C319.377 228.896 319.825 228.946 320.18 229.017V236.112C319.853 235.999 319.335 235.899 318.624 235.814C317.928 235.714 317.254 235.665 316.6 235.665C315.194 235.665 313.93 235.97 312.808 236.581C311.7 237.178 310.826 238.009 310.187 239.074C309.548 240.139 309.228 241.368 309.228 242.76V262H301.515ZM322.904 262V229.273H330.383V234.727H330.724C331.32 232.838 332.343 231.382 333.792 230.359C335.255 229.322 336.924 228.804 338.799 228.804C339.225 228.804 339.701 228.825 340.227 228.868C340.766 228.896 341.214 228.946 341.569 229.017V236.112C341.242 235.999 340.724 235.899 340.013 235.814C339.317 235.714 338.643 235.665 337.989 235.665C336.583 235.665 335.319 235.97 334.197 236.581C333.089 237.178 332.215 238.009 331.576 239.074C330.937 240.139 330.617 241.368 330.617 242.76V262H322.904ZM365.153 248.236V229.273H372.866V262H365.387V256.183H365.046C364.307 258.016 363.093 259.514 361.403 260.679C359.726 261.844 357.66 262.426 355.202 262.426C353.057 262.426 351.161 261.95 349.513 260.999C347.88 260.033 346.601 258.634 345.678 256.801C344.755 254.955 344.293 252.724 344.293 250.111V229.273H352.006V248.918C352.006 250.991 352.574 252.639 353.711 253.861C354.847 255.082 356.339 255.693 358.185 255.693C359.322 255.693 360.422 255.416 361.488 254.862C362.553 254.308 363.427 253.484 364.108 252.391C364.805 251.283 365.153 249.898 365.153 248.236ZM378.397 274.273V229.273H385.982V234.685H386.43C386.827 233.889 387.389 233.044 388.113 232.149C388.837 231.24 389.817 230.466 391.053 229.827C392.289 229.173 393.866 228.847 395.783 228.847C398.312 228.847 400.592 229.493 402.623 230.786C404.668 232.064 406.288 233.96 407.481 236.474C408.688 238.974 409.292 242.043 409.292 245.679C409.292 249.273 408.702 252.327 407.523 254.841C406.344 257.355 404.739 259.273 402.708 260.594C400.677 261.915 398.376 262.575 395.805 262.575C393.93 262.575 392.374 262.263 391.139 261.638C389.903 261.013 388.908 260.26 388.156 259.379C387.417 258.484 386.842 257.639 386.43 256.844H386.11V274.273H378.397ZM385.961 245.636C385.961 247.753 386.259 249.607 386.856 251.197C387.467 252.788 388.34 254.031 389.477 254.926C390.627 255.807 392.019 256.247 393.653 256.247C395.357 256.247 396.785 255.793 397.935 254.884C399.086 253.96 399.952 252.703 400.535 251.112C401.131 249.507 401.43 247.682 401.43 245.636C401.43 243.605 401.139 241.801 400.556 240.224C399.974 238.648 399.107 237.412 397.957 236.517C396.806 235.622 395.371 235.175 393.653 235.175C392.005 235.175 390.606 235.608 389.455 236.474C388.305 237.341 387.431 238.555 386.835 240.118C386.252 241.68 385.961 243.52 385.961 245.636ZM429.839 229.273V235.239H411.025V229.273H429.839ZM415.67 221.432H423.383V252.156C423.383 253.193 423.54 253.989 423.852 254.543C424.179 255.082 424.605 255.452 425.131 255.651C425.656 255.849 426.239 255.949 426.878 255.949C427.361 255.949 427.801 255.913 428.199 255.842C428.611 255.771 428.923 255.707 429.136 255.651L430.436 261.68C430.024 261.822 429.435 261.979 428.668 262.149C427.915 262.32 426.991 262.419 425.898 262.447C423.966 262.504 422.226 262.213 420.677 261.574C419.129 260.92 417.9 259.912 416.991 258.548C416.096 257.185 415.656 255.48 415.67 253.435V221.432ZM433.89 262V229.273H441.603V262H433.89ZM437.768 224.628C436.546 224.628 435.495 224.223 434.614 223.413C433.734 222.589 433.293 221.602 433.293 220.452C433.293 219.287 433.734 218.3 434.614 217.49C435.495 216.666 436.546 216.254 437.768 216.254C439.004 216.254 440.055 216.666 440.921 217.49C441.802 218.3 442.242 219.287 442.242 220.452C442.242 221.602 441.802 222.589 440.921 223.413C440.055 224.223 439.004 224.628 437.768 224.628ZM447.475 262V218.364H455.189V234.685H455.508C455.906 233.889 456.467 233.044 457.191 232.149C457.916 231.24 458.896 230.466 460.132 229.827C461.368 229.173 462.944 228.847 464.862 228.847C467.39 228.847 469.67 229.493 471.701 230.786C473.747 232.064 475.366 233.96 476.559 236.474C477.767 238.974 478.37 242.043 478.37 245.679C478.37 249.273 477.781 252.327 476.602 254.841C475.423 257.355 473.818 259.273 471.787 260.594C469.755 261.915 467.454 262.575 464.883 262.575C463.008 262.575 461.453 262.263 460.217 261.638C458.981 261.013 457.987 260.26 457.234 259.379C456.495 258.484 455.92 257.639 455.508 256.844H455.061V262H447.475ZM455.039 245.636C455.039 247.753 455.338 249.607 455.934 251.197C456.545 252.788 457.419 254.031 458.555 254.926C459.706 255.807 461.098 256.247 462.731 256.247C464.436 256.247 465.863 255.793 467.014 254.884C468.164 253.96 469.031 252.703 469.613 251.112C470.21 249.507 470.508 247.682 470.508 245.636C470.508 243.605 470.217 241.801 469.635 240.224C469.052 238.648 468.186 237.412 467.035 236.517C465.885 235.622 464.45 235.175 462.731 235.175C461.083 235.175 459.684 235.608 458.534 236.474C457.383 237.341 456.51 238.555 455.913 240.118C455.331 241.68 455.039 243.52 455.039 245.636ZM490.241 218.364V262H482.528V218.364H490.241ZM510.261 262.639C506.979 262.639 504.146 261.957 501.759 260.594C499.387 259.216 497.562 257.27 496.283 254.756C495.005 252.227 494.366 249.251 494.366 245.828C494.366 242.462 495.005 239.507 496.283 236.964C497.576 234.408 499.38 232.419 501.695 230.999C504.011 229.564 506.731 228.847 509.856 228.847C511.873 228.847 513.776 229.173 515.566 229.827C517.37 230.466 518.961 231.46 520.339 232.81C521.731 234.159 522.825 235.878 523.62 237.966C524.415 240.04 524.813 242.511 524.813 245.381V247.746H497.988V242.547H517.42C517.406 241.07 517.086 239.756 516.461 238.605C515.836 237.44 514.962 236.524 513.84 235.857C512.732 235.189 511.44 234.855 509.962 234.855C508.386 234.855 507.001 235.239 505.808 236.006C504.614 236.759 503.684 237.753 503.016 238.989C502.363 240.21 502.029 241.553 502.015 243.016V247.554C502.015 249.457 502.363 251.091 503.059 252.455C503.755 253.804 504.728 254.841 505.978 255.565C507.228 256.276 508.691 256.631 510.367 256.631C511.489 256.631 512.505 256.474 513.414 256.162C514.323 255.835 515.112 255.359 515.779 254.734C516.447 254.109 516.951 253.335 517.292 252.412L524.494 253.222C524.039 255.125 523.173 256.787 521.894 258.207C520.63 259.614 519.011 260.707 517.036 261.489C515.062 262.256 512.803 262.639 510.261 262.639ZM541.762 262V218.364H569.717V224.99H549.667V236.837H567.799V243.463H549.667V262H541.762ZM574.178 262V229.273H581.891V262H574.178ZM578.055 224.628C576.834 224.628 575.783 224.223 574.902 223.413C574.021 222.589 573.581 221.602 573.581 220.452C573.581 219.287 574.021 218.3 574.902 217.49C575.783 216.666 576.834 216.254 578.055 216.254C579.291 216.254 580.342 216.666 581.209 217.49C582.089 218.3 582.53 219.287 582.53 220.452C582.53 221.602 582.089 222.589 581.209 223.413C580.342 224.223 579.291 224.628 578.055 224.628ZM595.135 242.824V262H587.422V229.273H594.794V234.834H595.178C595.931 233.001 597.131 231.545 598.779 230.466C600.441 229.386 602.493 228.847 604.936 228.847C607.195 228.847 609.162 229.33 610.838 230.295C612.529 231.261 613.835 232.661 614.759 234.493C615.696 236.325 616.158 238.548 616.144 241.162V262H608.431V242.355C608.431 240.168 607.862 238.456 606.726 237.22C605.604 235.984 604.048 235.366 602.06 235.366C600.71 235.366 599.51 235.665 598.459 236.261C597.422 236.844 596.605 237.689 596.009 238.797C595.426 239.905 595.135 241.247 595.135 242.824ZM631.002 262.661C628.928 262.661 627.06 262.291 625.398 261.553C623.751 260.8 622.444 259.692 621.478 258.229C620.526 256.766 620.05 254.962 620.05 252.817C620.05 250.97 620.391 249.443 621.073 248.236C621.755 247.028 622.685 246.062 623.864 245.338C625.043 244.614 626.371 244.067 627.849 243.697C629.34 243.314 630.881 243.037 632.472 242.866C634.39 242.668 635.945 242.49 637.139 242.334C638.332 242.163 639.198 241.908 639.738 241.567C640.292 241.212 640.569 240.665 640.569 239.926V239.798C640.569 238.193 640.093 236.95 639.141 236.07C638.19 235.189 636.819 234.749 635.029 234.749C633.14 234.749 631.641 235.161 630.533 235.984C629.44 236.808 628.701 237.781 628.317 238.903L621.116 237.881C621.684 235.892 622.621 234.23 623.928 232.895C625.235 231.545 626.833 230.537 628.722 229.869C630.612 229.188 632.7 228.847 634.987 228.847C636.563 228.847 638.133 229.031 639.695 229.401C641.258 229.77 642.685 230.381 643.978 231.233C645.271 232.071 646.308 233.214 647.089 234.663C647.884 236.112 648.282 237.923 648.282 240.097V262H640.867V257.504H640.612C640.143 258.413 639.482 259.266 638.63 260.061C637.792 260.842 636.734 261.474 635.455 261.957C634.191 262.426 632.707 262.661 631.002 262.661ZM633.005 256.993C634.553 256.993 635.896 256.687 637.032 256.077C638.168 255.452 639.042 254.628 639.653 253.605C640.278 252.582 640.59 251.467 640.59 250.26V246.403C640.349 246.602 639.937 246.787 639.354 246.957C638.786 247.128 638.147 247.277 637.437 247.405C636.727 247.533 636.023 247.646 635.327 247.746C634.631 247.845 634.028 247.93 633.516 248.001C632.366 248.158 631.336 248.413 630.427 248.768C629.518 249.124 628.8 249.621 628.275 250.26C627.749 250.885 627.487 251.695 627.487 252.689C627.487 254.109 628.005 255.182 629.042 255.906C630.079 256.631 631.4 256.993 633.005 256.993ZM661.351 242.824V262H653.638V229.273H661.01V234.834H661.393C662.146 233.001 663.346 231.545 664.994 230.466C666.656 229.386 668.709 228.847 671.152 228.847C673.41 228.847 675.378 229.33 677.054 230.295C678.744 231.261 680.051 232.661 680.974 234.493C681.912 236.325 682.373 238.548 682.359 241.162V262H674.646V242.355C674.646 240.168 674.078 238.456 672.942 237.22C671.819 235.984 670.264 235.366 668.275 235.366C666.926 235.366 665.726 235.665 664.675 236.261C663.638 236.844 662.821 237.689 662.224 238.797C661.642 239.905 661.351 241.247 661.351 242.824ZM702.076 262.639C698.809 262.639 696.003 261.922 693.66 260.487C691.33 259.053 689.533 257.071 688.269 254.543C687.019 252 686.394 249.074 686.394 245.764C686.394 242.44 687.033 239.507 688.312 236.964C689.59 234.408 691.394 232.419 693.723 230.999C696.067 229.564 698.837 228.847 702.033 228.847C704.689 228.847 707.04 229.337 709.086 230.317C711.145 231.283 712.786 232.653 714.008 234.429C715.229 236.19 715.925 238.25 716.096 240.608H708.723C708.425 239.031 707.715 237.717 706.593 236.666C705.485 235.601 704 235.068 702.14 235.068C700.563 235.068 699.178 235.494 697.985 236.347C696.792 237.185 695.861 238.392 695.194 239.969C694.54 241.545 694.214 243.435 694.214 245.636C694.214 247.866 694.54 249.784 695.194 251.389C695.847 252.98 696.763 254.209 697.942 255.075C699.135 255.928 700.535 256.354 702.14 256.354C703.276 256.354 704.292 256.141 705.187 255.714C706.096 255.274 706.856 254.642 707.466 253.818C708.077 252.994 708.496 251.993 708.723 250.814H716.096C715.911 253.129 715.229 255.182 714.05 256.972C712.871 258.747 711.266 260.139 709.235 261.148C707.204 262.142 704.817 262.639 702.076 262.639ZM720.029 262V229.273H727.742V262H720.029ZM723.907 224.628C722.685 224.628 721.634 224.223 720.754 223.413C719.873 222.589 719.433 221.602 719.433 220.452C719.433 219.287 719.873 218.3 720.754 217.49C721.634 216.666 722.685 216.254 723.907 216.254C725.143 216.254 726.194 216.666 727.06 217.49C727.941 218.3 728.381 219.287 728.381 220.452C728.381 221.602 727.941 222.589 727.06 223.413C726.194 224.223 725.143 224.628 723.907 224.628ZM742.691 262.661C740.617 262.661 738.749 262.291 737.088 261.553C735.44 260.8 734.133 259.692 733.167 258.229C732.215 256.766 731.74 254.962 731.74 252.817C731.74 250.97 732.08 249.443 732.762 248.236C733.444 247.028 734.374 246.062 735.553 245.338C736.732 244.614 738.061 244.067 739.538 243.697C741.029 243.314 742.57 243.037 744.161 242.866C746.079 242.668 747.634 242.49 748.828 242.334C750.021 242.163 750.887 241.908 751.427 241.567C751.981 241.212 752.258 240.665 752.258 239.926V239.798C752.258 238.193 751.782 236.95 750.83 236.07C749.879 235.189 748.508 234.749 746.718 234.749C744.829 234.749 743.33 235.161 742.222 235.984C741.129 236.808 740.39 237.781 740.007 238.903L732.805 237.881C733.373 235.892 734.311 234.23 735.617 232.895C736.924 231.545 738.522 230.537 740.411 229.869C742.301 229.188 744.389 228.847 746.676 228.847C748.252 228.847 749.822 229.031 751.384 229.401C752.947 229.77 754.374 230.381 755.667 231.233C756.96 232.071 757.997 233.214 758.778 234.663C759.573 236.112 759.971 237.923 759.971 240.097V262H752.556V257.504H752.301C751.832 258.413 751.171 259.266 750.319 260.061C749.481 260.842 748.423 261.474 747.144 261.957C745.88 262.426 744.396 262.661 742.691 262.661ZM744.694 256.993C746.242 256.993 747.585 256.687 748.721 256.077C749.857 255.452 750.731 254.628 751.342 253.605C751.967 252.582 752.279 251.467 752.279 250.26V246.403C752.038 246.602 751.626 246.787 751.044 246.957C750.475 247.128 749.836 247.277 749.126 247.405C748.416 247.533 747.713 247.646 747.017 247.746C746.32 247.845 745.717 247.93 745.205 248.001C744.055 248.158 743.025 248.413 742.116 248.768C741.207 249.124 740.49 249.621 739.964 250.26C739.438 250.885 739.176 251.695 739.176 252.689C739.176 254.109 739.694 255.182 740.731 255.906C741.768 256.631 743.089 256.993 744.694 256.993ZM773.04 218.364V262H765.327V218.364H773.04ZM307.184 287.364V331H299.279V287.364H307.184ZM320.716 311.824V331H313.003V298.273H320.375V303.834H320.759C321.511 302.001 322.712 300.545 324.359 299.466C326.021 298.386 328.074 297.847 330.517 297.847C332.776 297.847 334.743 298.33 336.419 299.295C338.109 300.261 339.416 301.661 340.34 303.493C341.277 305.325 341.739 307.548 341.725 310.162V331H334.011V311.355C334.011 309.168 333.443 307.456 332.307 306.22C331.185 304.984 329.629 304.366 327.641 304.366C326.291 304.366 325.091 304.665 324.04 305.261C323.003 305.844 322.186 306.689 321.59 307.797C321.007 308.905 320.716 310.247 320.716 311.824ZM363.742 298.273V304.239H344.396V298.273H363.742ZM349.232 331V295.183C349.232 292.982 349.687 291.149 350.596 289.686C351.519 288.223 352.755 287.129 354.303 286.405C355.852 285.68 357.57 285.318 359.459 285.318C360.795 285.318 361.981 285.425 363.018 285.638C364.055 285.851 364.822 286.043 365.319 286.213L363.785 292.179C363.458 292.08 363.046 291.98 362.549 291.881C362.052 291.767 361.498 291.71 360.887 291.71C359.452 291.71 358.437 292.058 357.84 292.754C357.258 293.436 356.967 294.416 356.967 295.695V331H349.232ZM367.383 331V298.273H374.861V303.727H375.202C375.799 301.838 376.822 300.382 378.27 299.359C379.733 298.322 381.403 297.804 383.278 297.804C383.704 297.804 384.179 297.825 384.705 297.868C385.245 297.896 385.692 297.946 386.047 298.017V305.112C385.721 304.999 385.202 304.899 384.492 304.814C383.796 304.714 383.121 304.665 382.468 304.665C381.062 304.665 379.797 304.97 378.675 305.581C377.567 306.178 376.694 307.009 376.054 308.074C375.415 309.139 375.096 310.368 375.096 311.76V331H367.383ZM397.603 331.661C395.529 331.661 393.662 331.291 392 330.553C390.352 329.8 389.045 328.692 388.079 327.229C387.127 325.766 386.652 323.962 386.652 321.817C386.652 319.97 386.993 318.443 387.674 317.236C388.356 316.028 389.287 315.062 390.466 314.338C391.645 313.614 392.973 313.067 394.45 312.697C395.941 312.314 397.483 312.037 399.074 311.866C400.991 311.668 402.547 311.49 403.74 311.334C404.933 311.163 405.799 310.908 406.339 310.567C406.893 310.212 407.17 309.665 407.17 308.926V308.798C407.17 307.193 406.694 305.95 405.743 305.07C404.791 304.189 403.42 303.749 401.63 303.749C399.741 303.749 398.243 304.161 397.135 304.984C396.041 305.808 395.302 306.781 394.919 307.903L387.717 306.881C388.285 304.892 389.223 303.23 390.529 301.895C391.836 300.545 393.434 299.537 395.324 298.869C397.213 298.188 399.301 297.847 401.588 297.847C403.164 297.847 404.734 298.031 406.297 298.401C407.859 298.77 409.287 299.381 410.579 300.233C411.872 301.071 412.909 302.214 413.69 303.663C414.485 305.112 414.883 306.923 414.883 309.097V331H407.468V326.504H407.213C406.744 327.413 406.083 328.266 405.231 329.061C404.393 329.842 403.335 330.474 402.056 330.957C400.792 331.426 399.308 331.661 397.603 331.661ZM399.606 325.993C401.154 325.993 402.497 325.687 403.633 325.077C404.77 324.452 405.643 323.628 406.254 322.605C406.879 321.582 407.191 320.467 407.191 319.26V315.403C406.95 315.602 406.538 315.787 405.956 315.957C405.387 316.128 404.748 316.277 404.038 316.405C403.328 316.533 402.625 316.646 401.929 316.746C401.233 316.845 400.629 316.93 400.118 317.001C398.967 317.158 397.937 317.413 397.028 317.768C396.119 318.124 395.402 318.621 394.876 319.26C394.35 319.885 394.088 320.695 394.088 321.689C394.088 323.109 394.606 324.182 395.643 324.906C396.68 325.631 398.001 325.993 399.606 325.993ZM446.105 306.923L439.074 307.69C438.875 306.98 438.527 306.312 438.03 305.688C437.547 305.062 436.894 304.558 436.07 304.175C435.246 303.791 434.237 303.599 433.044 303.599C431.439 303.599 430.09 303.947 428.996 304.643C427.916 305.339 427.384 306.241 427.398 307.349C427.384 308.301 427.732 309.075 428.442 309.672C429.166 310.268 430.36 310.759 432.021 311.142L437.604 312.335C440.7 313.003 443.002 314.061 444.507 315.51C446.027 316.959 446.794 318.855 446.808 321.199C446.794 323.259 446.191 325.077 444.997 326.653C443.818 328.216 442.178 329.437 440.075 330.318C437.973 331.199 435.558 331.639 432.831 331.639C428.825 331.639 425.601 330.801 423.158 329.125C420.715 327.435 419.259 325.084 418.79 322.072L426.311 321.348C426.652 322.825 427.377 323.94 428.485 324.693C429.593 325.446 431.034 325.822 432.81 325.822C434.642 325.822 436.112 325.446 437.22 324.693C438.343 323.94 438.904 323.01 438.904 321.902C438.904 320.964 438.541 320.19 437.817 319.58C437.107 318.969 435.999 318.5 434.493 318.173L428.911 317.001C425.771 316.348 423.449 315.247 421.943 313.699C420.438 312.136 419.692 310.162 419.706 307.776C419.692 305.759 420.239 304.011 421.347 302.534C422.469 301.043 424.024 299.892 426.013 299.082C428.016 298.259 430.324 297.847 432.938 297.847C436.773 297.847 439.791 298.663 441.993 300.297C444.209 301.93 445.58 304.139 446.105 306.923ZM467.111 298.273V304.239H448.297V298.273H467.111ZM452.942 290.432H460.655V321.156C460.655 322.193 460.811 322.989 461.124 323.543C461.45 324.082 461.877 324.452 462.402 324.651C462.928 324.849 463.51 324.949 464.149 324.949C464.632 324.949 465.073 324.913 465.47 324.842C465.882 324.771 466.195 324.707 466.408 324.651L467.707 330.68C467.296 330.822 466.706 330.979 465.939 331.149C465.186 331.32 464.263 331.419 463.169 331.447C461.237 331.504 459.497 331.213 457.949 330.574C456.401 329.92 455.172 328.912 454.263 327.548C453.368 326.185 452.928 324.48 452.942 322.435V290.432ZM471.161 331V298.273H478.64V303.727H478.981C479.578 301.838 480.6 300.382 482.049 299.359C483.512 298.322 485.181 297.804 487.056 297.804C487.483 297.804 487.958 297.825 488.484 297.868C489.024 297.896 489.471 297.946 489.826 298.017V305.112C489.5 304.999 488.981 304.899 488.271 304.814C487.575 304.714 486.9 304.665 486.247 304.665C484.84 304.665 483.576 304.97 482.454 305.581C481.346 306.178 480.473 307.009 479.833 308.074C479.194 309.139 478.875 310.368 478.875 311.76V331H471.161ZM513.41 317.236V298.273H521.123V331H513.644V325.183H513.303C512.565 327.016 511.35 328.514 509.66 329.679C507.984 330.844 505.917 331.426 503.46 331.426C501.315 331.426 499.418 330.95 497.771 329.999C496.137 329.033 494.859 327.634 493.936 325.801C493.012 323.955 492.551 321.724 492.551 319.111V298.273H500.264V317.918C500.264 319.991 500.832 321.639 501.968 322.861C503.105 324.082 504.596 324.693 506.443 324.693C507.579 324.693 508.68 324.416 509.745 323.862C510.811 323.308 511.684 322.484 512.366 321.391C513.062 320.283 513.41 318.898 513.41 317.236ZM540.93 331.639C537.663 331.639 534.858 330.922 532.514 329.487C530.184 328.053 528.387 326.071 527.123 323.543C525.873 321 525.248 318.074 525.248 314.764C525.248 311.44 525.887 308.507 527.166 305.964C528.444 303.408 530.248 301.419 532.578 299.999C534.922 298.564 537.691 297.847 540.887 297.847C543.544 297.847 545.895 298.337 547.94 299.317C550 300.283 551.64 301.653 552.862 303.429C554.083 305.19 554.779 307.25 554.95 309.608H547.578C547.279 308.031 546.569 306.717 545.447 305.666C544.339 304.601 542.855 304.068 540.994 304.068C539.417 304.068 538.032 304.494 536.839 305.347C535.646 306.185 534.716 307.392 534.048 308.969C533.395 310.545 533.068 312.435 533.068 314.636C533.068 316.866 533.395 318.784 534.048 320.389C534.701 321.98 535.618 323.209 536.797 324.075C537.99 324.928 539.389 325.354 540.994 325.354C542.13 325.354 543.146 325.141 544.041 324.714C544.95 324.274 545.71 323.642 546.321 322.818C546.931 321.994 547.35 320.993 547.578 319.814H554.95C554.765 322.129 554.083 324.182 552.904 325.972C551.725 327.747 550.12 329.139 548.089 330.148C546.058 331.142 543.672 331.639 540.93 331.639ZM575.226 298.273V304.239H556.412V298.273H575.226ZM561.057 290.432H568.77V321.156C568.77 322.193 568.926 322.989 569.238 323.543C569.565 324.082 569.991 324.452 570.517 324.651C571.042 324.849 571.625 324.949 572.264 324.949C572.747 324.949 573.187 324.913 573.585 324.842C573.997 324.771 574.309 324.707 574.523 324.651L575.822 330.68C575.41 330.822 574.821 330.979 574.054 331.149C573.301 331.32 572.378 331.419 571.284 331.447C569.352 331.504 567.612 331.213 566.064 330.574C564.515 329.92 563.287 328.912 562.378 327.548C561.483 326.185 561.042 324.48 561.057 322.435V290.432ZM600.136 317.236V298.273H607.849V331H600.37V325.183H600.029C599.291 327.016 598.076 328.514 596.386 329.679C594.71 330.844 592.643 331.426 590.185 331.426C588.041 331.426 586.144 330.95 584.497 329.999C582.863 329.033 581.585 327.634 580.661 325.801C579.738 323.955 579.276 321.724 579.276 319.111V298.273H586.989V317.918C586.989 319.991 587.558 321.639 588.694 322.861C589.83 324.082 591.322 324.693 593.168 324.693C594.305 324.693 595.406 324.416 596.471 323.862C597.536 323.308 598.41 322.484 599.092 321.391C599.788 320.283 600.136 318.898 600.136 317.236ZM613.38 331V298.273H620.859V303.727H621.2C621.796 301.838 622.819 300.382 624.268 299.359C625.731 298.322 627.4 297.804 629.275 297.804C629.701 297.804 630.177 297.825 630.703 297.868C631.243 297.896 631.69 297.946 632.045 298.017V305.112C631.718 304.999 631.2 304.899 630.49 304.814C629.794 304.714 629.119 304.665 628.466 304.665C627.059 304.665 625.795 304.97 624.673 305.581C623.565 306.178 622.691 307.009 622.052 308.074C621.413 309.139 621.093 310.368 621.093 311.76V331H613.38ZM647.91 331.639C644.629 331.639 641.795 330.957 639.409 329.594C637.037 328.216 635.211 326.27 633.933 323.756C632.655 321.227 632.015 318.251 632.015 314.828C632.015 311.462 632.655 308.507 633.933 305.964C635.226 303.408 637.03 301.419 639.345 299.999C641.66 298.564 644.38 297.847 647.505 297.847C649.523 297.847 651.426 298.173 653.216 298.827C655.02 299.466 656.611 300.46 657.988 301.81C659.38 303.159 660.474 304.878 661.27 306.966C662.065 309.04 662.463 311.511 662.463 314.381V316.746H635.638V311.547H655.069C655.055 310.07 654.736 308.756 654.111 307.605C653.486 306.44 652.612 305.524 651.49 304.857C650.382 304.189 649.089 303.855 647.612 303.855C646.035 303.855 644.65 304.239 643.457 305.006C642.264 305.759 641.334 306.753 640.666 307.989C640.013 309.21 639.679 310.553 639.665 312.016V316.554C639.665 318.457 640.013 320.091 640.709 321.455C641.405 322.804 642.378 323.841 643.628 324.565C644.878 325.276 646.341 325.631 648.017 325.631C649.139 325.631 650.155 325.474 651.064 325.162C651.973 324.835 652.761 324.359 653.429 323.734C654.096 323.109 654.601 322.335 654.942 321.412L662.143 322.222C661.689 324.125 660.822 325.787 659.544 327.207C658.28 328.614 656.66 329.707 654.686 330.489C652.711 331.256 650.453 331.639 647.91 331.639Z" fill="#0A1A66"/>
<g clip-path="url(#clip1_3440_5992)">
<path d="M415 133L424.143 123.857V128.428H433.286L424.143 135.286V142.143L415 133Z" fill="#0A1A66"/>
<path d="M447.001 133L437.858 142.143V137.571H428.715L437.858 130.714V123.857L447.001 133Z" fill="#0A1A66"/>
</g>
<path d="M474.521 143.162V122.907H479.417V131.472H479.684L486.38 122.907H492.146L484.965 131.947L492.274 143.162H486.419L481.375 135.201L479.417 137.673V143.162H474.521Z" fill="#0A1A66"/>
<path d="M457.166 143.162V140.373L467.007 126.883H457.176V122.907H473.198V125.696L463.357 139.186H473.188V143.162H457.166Z" fill="#0A1A66"/>
<path d="M538.967 143.479C537.609 143.479 536.426 143.139 535.417 142.46C534.415 141.781 533.637 140.851 533.083 139.671C532.529 138.491 532.252 137.146 532.252 135.636C532.252 134.113 532.532 132.758 533.093 131.571C533.66 130.384 534.444 129.454 535.446 128.782C536.449 128.103 537.612 127.763 538.938 127.763C539.953 127.763 540.873 127.961 541.697 128.357C542.521 128.746 543.2 129.296 543.734 130.008C544.275 130.714 544.615 131.538 544.753 132.481H542.973C542.788 131.624 542.343 130.892 541.638 130.285C540.939 129.672 540.049 129.365 538.967 129.365C537.998 129.365 537.141 129.629 536.396 130.157C535.651 130.677 535.067 131.406 534.645 132.342C534.23 133.272 534.022 134.35 534.022 135.576C534.022 136.809 534.227 137.901 534.635 138.85C535.044 139.793 535.618 140.531 536.356 141.065C537.101 141.6 537.972 141.867 538.967 141.867C539.64 141.867 540.253 141.741 540.807 141.491C541.367 141.234 541.836 140.871 542.211 140.403C542.594 139.935 542.851 139.378 542.983 138.731H544.763C544.631 139.648 544.305 140.465 543.784 141.184C543.27 141.896 542.6 142.457 541.776 142.865C540.959 143.274 540.022 143.479 538.967 143.479Z" fill="#0A1A66"/>
<path d="M520.614 133.667V143.162H518.854V127.971H520.565V130.354H520.723C521.079 129.576 521.633 128.953 522.384 128.485C523.143 128.01 524.079 127.773 525.193 127.773C526.215 127.773 527.112 127.987 527.883 128.416C528.661 128.838 529.265 129.461 529.693 130.285C530.128 131.109 530.346 132.121 530.346 133.321V143.162H528.585V133.43C528.585 132.184 528.236 131.198 527.537 130.473C526.845 129.748 525.915 129.385 524.748 129.385C523.95 129.385 523.241 129.556 522.622 129.899C522.002 130.242 521.511 130.737 521.148 131.383C520.792 132.022 520.614 132.784 520.614 133.667Z" fill="#0A1A66"/>
<path d="M506.828 148.859C506.478 148.859 506.152 148.826 505.849 148.76C505.545 148.694 505.305 148.621 505.127 148.542L505.601 146.989C506.201 147.174 506.735 147.24 507.203 147.187C507.672 147.141 508.087 146.93 508.45 146.554C508.812 146.185 509.135 145.618 509.419 144.853L509.973 143.31L504.385 127.971H506.294L510.803 140.838H510.942L515.452 127.971H517.361L510.932 145.565C510.662 146.297 510.329 146.907 509.933 147.395C509.538 147.889 509.079 148.255 508.558 148.493C508.044 148.737 507.467 148.859 506.828 148.859Z" fill="#0A1A66"/>
<path d="M503.478 131.304L501.865 131.759C501.707 131.304 501.483 130.892 501.193 130.523C500.903 130.153 500.524 129.86 500.056 129.642C499.594 129.425 499.02 129.316 498.335 129.316C497.306 129.316 496.462 129.56 495.803 130.048C495.143 130.536 494.814 131.165 494.814 131.937C494.814 132.59 495.038 133.12 495.486 133.529C495.941 133.931 496.64 134.251 497.583 134.488L499.878 135.052C501.15 135.362 502.103 135.853 502.736 136.526C503.375 137.198 503.695 138.042 503.695 139.058C503.695 139.915 503.458 140.676 502.983 141.342C502.508 142.008 501.846 142.532 500.995 142.915C500.151 143.291 499.172 143.479 498.058 143.479C496.574 143.479 495.351 143.146 494.389 142.48C493.426 141.807 492.809 140.838 492.539 139.572L494.23 139.157C494.448 140.06 494.873 140.742 495.506 141.204C496.146 141.665 496.986 141.896 498.028 141.896C499.195 141.896 500.128 141.636 500.827 141.115C501.526 140.587 501.875 139.928 501.875 139.137C501.875 138.524 501.671 138.009 501.262 137.594C500.853 137.172 500.234 136.862 499.403 136.664L496.92 136.071C495.602 135.754 494.626 135.253 493.993 134.568C493.36 133.882 493.043 133.031 493.043 132.016C493.043 131.179 493.271 130.443 493.726 129.81C494.181 129.171 494.807 128.67 495.605 128.307C496.403 127.945 497.313 127.763 498.335 127.763C499.726 127.763 500.837 128.08 501.668 128.713C502.505 129.339 503.108 130.203 503.478 131.304Z" fill="#0A1A66"/>
</g>
<defs>
<radialGradient id="paint0_radial_3440_5992" cx="0" cy="0" r="1" gradientUnits="userSpaceOnUse" gradientTransform="scale(430)">
<stop stop-color="#FFF6E5"/>
<stop offset="1" stop-color="#DAE2F2"/>
</radialGradient>
<linearGradient id="paint1_linear_3440_5992" x1="478.155" y1="1568.82" x2="614.785" y2="-19.425" gradientUnits="userSpaceOnUse">
<stop stop-color="#FFF6E5"/>
<stop offset="0.35" stop-color="#DAE2F2"/>
<stop offset="0.65" stop-color="#DAE2F2"/>
<stop offset="1" stop-color="#FFF6E5"/>
</linearGradient>
<linearGradient id="paint2_linear_3440_5992" x1="478.154" y1="1568.82" x2="614.784" y2="-19.4255" gradientUnits="userSpaceOnUse">
<stop stop-color="#FFF6E5"/>
<stop offset="0.35" stop-color="#DAE2F2"/>
<stop offset="0.65" stop-color="#DAE2F2"/>
<stop offset="1" stop-color="#FFF6E5"/>
</linearGradient>
<linearGradient id="paint3_linear_3440_5992" x1="478.155" y1="1568.82" x2="614.784" y2="-19.4264" gradientUnits="userSpaceOnUse">
<stop stop-color="#FFF6E5"/>
<stop offset="0.35" stop-color="#DAE2F2"/>
<stop offset="0.65" stop-color="#DAE2F2"/>
<stop offset="1" stop-color="#FFF6E5"/>
</linearGradient>
<linearGradient id="paint4_linear_3440_5992" x1="478.156" y1="1568.82" x2="614.786" y2="-19.4265" gradientUnits="userSpaceOnUse">
<stop stop-color="#FFF6E5"/>
<stop offset="0.35" stop-color="#DAE2F2"/>
<stop offset="0.65" stop-color="#DAE2F2"/>
<stop offset="1" stop-color="#FFF6E5"/>
</linearGradient>
<linearGradient id="paint5_linear_3440_5992" x1="478.155" y1="1568.82" x2="614.785" y2="-19.4256" gradientUnits="userSpaceOnUse">
<stop stop-color="#FFF6E5"/>
<stop offset="0.35" stop-color="#DAE2F2"/>
<stop offset="0.65" stop-color="#DAE2F2"/>
<stop offset="1" stop-color="#FFF6E5"/>
</linearGradient>
<linearGradient id="paint6_linear_3440_5992" x1="478.157" y1="1568.82" x2="614.787" y2="-19.4255" gradientUnits="userSpaceOnUse">
<stop stop-color="#FFF6E5"/>
<stop offset="0.35" stop-color="#DAE2F2"/>
<stop offset="0.65" stop-color="#DAE2F2"/>
<stop offset="1" stop-color="#FFF6E5"/>
</linearGradient>
<linearGradient id="paint7_linear_3440_5992" x1="478.154" y1="1568.82" x2="614.784" y2="-19.4241" gradientUnits="userSpaceOnUse">
<stop stop-color="#FFF6E5"/>
<stop offset="0.35" stop-color="#DAE2F2"/>
<stop offset="0.65" stop-color="#DAE2F2"/>
<stop offset="1" stop-color="#FFF6E5"/>
</linearGradient>
<linearGradient id="paint8_linear_3440_5992" x1="478.155" y1="1568.82" x2="614.785" y2="-19.4241" gradientUnits="userSpaceOnUse">
<stop stop-color="#FFF6E5"/>
<stop offset="0.35" stop-color="#DAE2F2"/>
<stop offset="0.65" stop-color="#DAE2F2"/>
<stop offset="1" stop-color="#FFF6E5"/>
</linearGradient>
<linearGradient id="paint9_linear_3440_5992" x1="478.154" y1="1568.82" x2="614.784" y2="-19.425" gradientUnits="userSpaceOnUse">
<stop stop-color="#FFF6E5"/>
<stop offset="0.35" stop-color="#DAE2F2"/>
<stop offset="0.65" stop-color="#DAE2F2"/>
<stop offset="1" stop-color="#FFF6E5"/>
</linearGradient>
<linearGradient id="paint10_linear_3440_5992" x1="478.079" y1="1568.82" x2="614.709" y2="-19.425" gradientUnits="userSpaceOnUse">
<stop stop-color="#FFF6E5"/>
<stop offset="0.35" stop-color="#DAE2F2"/>
<stop offset="0.65" stop-color="#DAE2F2"/>
<stop offset="1" stop-color="#FFF6E5"/>
</linearGradient>
<linearGradient id="paint11_linear_3440_5992" x1="478.154" y1="1568.82" x2="614.784" y2="-19.4259" gradientUnits="userSpaceOnUse">
<stop stop-color="#FFF6E5"/>
<stop offset="0.35" stop-color="#DAE2F2"/>
<stop offset="0.65" stop-color="#DAE2F2"/>
<stop offset="1" stop-color="#FFF6E5"/>
</linearGradient>
<linearGradient id="paint12_linear_3440_5992" x1="478.157" y1="1568.82" x2="614.787" y2="-19.4259" gradientUnits="userSpaceOnUse">
<stop stop-color="#FFF6E5"/>
<stop offset="0.35" stop-color="#DAE2F2"/>
<stop offset="0.65" stop-color="#DAE2F2"/>
<stop offset="1" stop-color="#FFF6E5"/>
</linearGradient>
<clipPath id="clip0_3440_5992">
<rect width="960" height="540" fill="white"/>
</clipPath>
<clipPath id="clip1_3440_5992">
<rect width="32" height="32" fill="white" transform="translate(415 117)"/>
</clipPath>
</defs>
</svg>
