<svg width="540" height="122" viewBox="0 0 540 122" fill="none" xmlns="http://www.w3.org/2000/svg">
<path d="M164.559 62.34C160.86 62.34 157.516 61.7067 154.527 60.44C151.588 59.1733 149.258 57.3493 147.535 54.968C145.812 52.5867 144.926 49.7747 144.875 46.532H156.275C156.427 48.7107 157.187 50.4333 158.555 51.7C159.974 52.9667 161.899 53.6 164.331 53.6C166.814 53.6 168.764 53.0174 170.183 51.852C171.602 50.636 172.311 49.0653 172.311 47.14C172.311 45.5693 171.83 44.2773 170.867 43.264C169.904 42.2507 168.688 41.4653 167.219 40.908C165.8 40.3 163.824 39.6413 161.291 38.932C157.846 37.9187 155.034 36.9307 152.855 35.968C150.727 34.9547 148.878 33.46 147.307 31.484C145.787 29.4573 145.027 26.772 145.027 23.428C145.027 20.2867 145.812 17.5507 147.383 15.22C148.954 12.8893 151.158 11.116 153.995 9.90001C156.832 8.63335 160.075 8.00002 163.723 8.00002C169.195 8.00002 173.628 9.34268 177.023 12.028C180.468 14.6627 182.368 18.3613 182.723 23.124H171.019C170.918 21.3 170.132 19.8053 168.663 18.64C167.244 17.424 165.344 16.816 162.963 16.816C160.886 16.816 159.214 17.348 157.947 18.412C156.731 19.476 156.123 21.0213 156.123 23.048C156.123 24.4667 156.579 25.6573 157.491 26.62C158.454 27.532 159.619 28.292 160.987 28.9C162.406 29.4573 164.382 30.116 166.915 30.876C170.36 31.8893 173.172 32.9027 175.351 33.916C177.53 34.9293 179.404 36.4493 180.975 38.476C182.546 40.5027 183.331 43.1627 183.331 46.456C183.331 49.2933 182.596 51.928 181.127 54.36C179.658 56.792 177.504 58.7427 174.667 60.212C171.83 61.6307 168.46 62.34 164.559 62.34Z" fill="black"/>
<path d="M215.888 19.096C220.904 19.096 224.957 20.692 228.048 23.884C231.138 27.0253 232.684 31.4333 232.684 37.108V61.808H222.044V38.552C222.044 35.208 221.207 32.6493 219.535 30.876C217.863 29.052 215.584 28.14 212.696 28.14C209.757 28.14 207.426 29.052 205.704 30.876C204.032 32.6493 203.195 35.208 203.195 38.552V61.808H192.556V19.704H203.195V24.948C204.614 23.124 206.413 21.7053 208.591 20.692C210.821 19.628 213.253 19.096 215.888 19.096Z" fill="black"/>
<path d="M261.498 62.492C257.444 62.492 253.796 61.6053 250.554 59.832C247.311 58.008 244.752 55.4493 242.878 52.156C241.054 48.8627 240.142 45.0627 240.142 40.756C240.142 36.4493 241.079 32.6493 242.954 29.356C244.879 26.0627 247.488 23.5293 250.782 21.756C254.075 19.932 257.748 19.02 261.802 19.02C265.855 19.02 269.528 19.932 272.822 21.756C276.115 23.5293 278.699 26.0627 280.574 29.356C282.499 32.6493 283.462 36.4493 283.462 40.756C283.462 45.0627 282.474 48.8627 280.498 52.156C278.572 55.4493 275.938 58.008 272.594 59.832C269.3 61.6053 265.602 62.492 261.498 62.492ZM261.498 53.22C263.423 53.22 265.222 52.764 266.894 51.852C268.616 50.8894 269.984 49.4707 270.998 47.596C272.011 45.7213 272.518 43.4413 272.518 40.756C272.518 36.7533 271.454 33.688 269.326 31.56C267.248 29.3813 264.69 28.292 261.65 28.292C258.61 28.292 256.051 29.3813 253.974 31.56C251.947 33.688 250.934 36.7533 250.934 40.756C250.934 44.7587 251.922 47.8493 253.898 50.028C255.924 52.156 258.458 53.22 261.498 53.22Z" fill="black"/>
<path d="M349.634 19.704L337.322 61.808H325.846L318.17 32.396L310.494 61.808H298.942L286.554 19.704H297.346L304.794 51.776L312.85 19.704H324.098L332.002 51.7L339.45 19.704H349.634Z" fill="black"/>
<path d="M373.707 62.34C370.009 62.34 366.665 61.7067 363.675 60.44C360.737 59.1733 358.406 57.3493 356.683 54.968C354.961 52.5867 354.074 49.7747 354.023 46.532H365.423C365.575 48.7107 366.335 50.4333 367.703 51.7C369.122 52.9667 371.047 53.6 373.479 53.6C375.962 53.6 377.913 53.0174 379.331 51.852C380.75 50.636 381.459 49.0653 381.459 47.14C381.459 45.5693 380.978 44.2773 380.015 43.264C379.053 42.2507 377.837 41.4653 376.367 40.908C374.949 40.3 372.973 39.6413 370.439 38.932C366.994 37.9187 364.182 36.9307 362.003 35.968C359.875 34.9547 358.026 33.46 356.455 31.484C354.935 29.4573 354.175 26.772 354.175 23.428C354.175 20.2867 354.961 17.5507 356.531 15.22C358.102 12.8893 360.306 11.116 363.143 9.90001C365.981 8.63335 369.223 8.00002 372.871 8.00002C378.343 8.00002 382.777 9.34268 386.171 12.028C389.617 14.6627 391.517 18.3613 391.871 23.124H380.167C380.066 21.3 379.281 19.8053 377.811 18.64C376.393 17.424 374.493 16.816 372.111 16.816C370.034 16.816 368.362 17.348 367.095 18.412C365.879 19.476 365.271 21.0213 365.271 23.048C365.271 24.4667 365.727 25.6573 366.639 26.62C367.602 27.532 368.767 28.292 370.135 28.9C371.554 29.4573 373.53 30.116 376.063 30.876C379.509 31.8893 382.321 32.9027 384.499 33.916C386.678 34.9293 388.553 36.4493 390.123 38.476C391.694 40.5027 392.479 43.1627 392.479 46.456C392.479 49.2933 391.745 51.928 390.275 54.36C388.806 56.792 386.653 58.7427 383.815 60.212C380.978 61.6307 377.609 62.34 373.707 62.34Z" fill="black"/>
<path d="M398.968 40.756C398.968 36.3987 399.855 32.5987 401.628 29.356C403.401 26.0627 405.859 23.5293 409 21.756C412.141 19.932 415.739 19.02 419.792 19.02C425.011 19.02 429.317 20.3373 432.712 22.972C436.157 25.556 438.463 29.204 439.628 33.916H428.152C427.544 32.092 426.505 30.6733 425.036 29.66C423.617 28.596 421.844 28.064 419.716 28.064C416.676 28.064 414.269 29.1787 412.496 31.408C410.723 33.5867 409.836 36.7027 409.836 40.756C409.836 44.7587 410.723 47.8747 412.496 50.104C414.269 52.2827 416.676 53.372 419.716 53.372C424.023 53.372 426.835 51.4467 428.152 47.596H439.628C438.463 52.156 436.157 55.7787 432.712 58.464C429.267 61.1493 424.96 62.492 419.792 62.492C415.739 62.492 412.141 61.6053 409 59.832C405.859 58.008 403.401 55.4747 401.628 52.232C399.855 48.9387 398.968 45.1133 398.968 40.756Z" fill="black"/>
<path d="M444.687 40.604C444.687 36.348 445.523 32.5733 447.195 29.28C448.917 25.9867 451.223 23.4533 454.111 21.68C457.049 19.9067 460.317 19.02 463.915 19.02C467.056 19.02 469.792 19.6533 472.123 20.92C474.504 22.1867 476.404 23.7827 477.823 25.708V19.704H488.539V61.808H477.823V55.652C476.455 57.628 474.555 59.2747 472.123 60.592C469.741 61.8587 466.98 62.492 463.839 62.492C460.292 62.492 457.049 61.58 454.111 59.756C451.223 57.932 448.917 55.3733 447.195 52.08C445.523 48.736 444.687 44.9107 444.687 40.604ZM477.823 40.756C477.823 38.172 477.316 35.968 476.303 34.144C475.289 32.2693 473.921 30.8507 472.199 29.888C470.476 28.8747 468.627 28.368 466.651 28.368C464.675 28.368 462.851 28.8493 461.179 29.812C459.507 30.7747 458.139 32.1933 457.075 34.068C456.061 35.892 455.555 38.0707 455.555 40.604C455.555 43.1373 456.061 45.3667 457.075 47.292C458.139 49.1667 459.507 50.6107 461.179 51.624C462.901 52.6373 464.725 53.144 466.651 53.144C468.627 53.144 470.476 52.6627 472.199 51.7C473.921 50.6867 475.289 49.268 476.303 47.444C477.316 45.5693 477.823 43.34 477.823 40.756Z" fill="black"/>
<path d="M522.263 19.096C527.279 19.096 531.332 20.692 534.423 23.884C537.513 27.0253 539.059 31.4333 539.059 37.108V61.808H528.418V38.552C528.418 35.208 527.582 32.6493 525.91 30.876C524.238 29.052 521.958 28.14 519.07 28.14C516.132 28.14 513.801 29.052 512.078 30.876C510.406 32.6493 509.57 35.208 509.57 38.552V61.808H498.931V19.704H509.57V24.948C510.989 23.124 512.788 21.7053 514.966 20.692C517.196 19.628 519.628 19.096 522.263 19.096Z" fill="black"/>
<path d="M158.469 102.964H150.347L149.045 106.808H143.496L151.37 85.046H157.508L165.382 106.808H159.771L158.469 102.964ZM157.105 98.872L154.408 90.905L151.742 98.872H157.105Z" fill="#414549"/>
<path d="M182.222 107.025C180.631 107.025 179.205 106.767 177.944 106.25C176.683 105.733 175.671 104.969 174.906 103.956C174.162 102.943 173.769 101.724 173.728 100.298H179.37C179.453 101.104 179.732 101.724 180.207 102.158C180.682 102.571 181.302 102.778 182.067 102.778C182.852 102.778 183.472 102.602 183.927 102.251C184.382 101.879 184.609 101.373 184.609 100.732C184.609 100.195 184.423 99.7504 184.051 99.399C183.7 99.0477 183.255 98.7584 182.718 98.531C182.201 98.3037 181.457 98.0454 180.486 97.756C179.081 97.322 177.934 96.888 177.045 96.454C176.156 96.02 175.392 95.3794 174.751 94.532C174.11 93.6847 173.79 92.579 173.79 91.215C173.79 89.1897 174.524 87.6087 175.991 86.472C177.458 85.3147 179.37 84.736 181.726 84.736C184.123 84.736 186.056 85.3147 187.523 86.472C188.99 87.6087 189.776 89.2 189.879 91.246H184.144C184.103 90.5434 183.844 89.9957 183.369 89.603C182.894 89.1897 182.284 88.983 181.54 88.983C180.899 88.983 180.383 89.1587 179.99 89.51C179.597 89.8407 179.401 90.3264 179.401 90.967C179.401 91.6697 179.732 92.2174 180.393 92.61C181.054 93.0027 182.088 93.4264 183.493 93.881C184.898 94.3564 186.035 94.811 186.903 95.245C187.792 95.679 188.556 96.3094 189.197 97.136C189.838 97.9627 190.158 99.027 190.158 100.329C190.158 101.569 189.838 102.695 189.197 103.708C188.577 104.721 187.668 105.527 186.469 106.126C185.27 106.725 183.855 107.025 182.222 107.025Z" fill="#414549"/>
<path d="M192.366 98.159C192.366 96.361 192.728 94.7904 193.451 93.447C194.195 92.1037 195.218 91.0704 196.52 90.347C197.843 89.6237 199.351 89.262 201.046 89.262C203.216 89.262 205.024 89.8304 206.471 90.967C207.938 92.1037 208.899 93.7054 209.354 95.772H203.712C203.237 94.4494 202.317 93.788 200.953 93.788C199.982 93.788 199.207 94.1704 198.628 94.935C198.049 95.679 197.76 96.7537 197.76 98.159C197.76 99.5644 198.049 100.649 198.628 101.414C199.207 102.158 199.982 102.53 200.953 102.53C202.317 102.53 203.237 101.869 203.712 100.546H209.354C208.899 102.571 207.938 104.163 206.471 105.32C205.004 106.477 203.195 107.056 201.046 107.056C199.351 107.056 197.843 106.694 196.52 105.971C195.218 105.248 194.195 104.214 193.451 102.871C192.728 101.528 192.366 99.957 192.366 98.159Z" fill="#414549"/>
<path d="M211.136 98.128C211.136 96.3507 211.466 94.7904 212.128 93.447C212.81 92.1037 213.729 91.0704 214.887 90.347C216.044 89.6237 217.336 89.262 218.762 89.262C219.981 89.262 221.045 89.51 221.955 90.006C222.885 90.502 223.598 91.153 224.094 91.959V89.51H229.395V106.808H224.094V104.359C223.577 105.165 222.854 105.816 221.924 106.312C221.014 106.808 219.95 107.056 218.731 107.056C217.325 107.056 216.044 106.694 214.887 105.971C213.729 105.227 212.81 104.183 212.128 102.84C211.466 101.476 211.136 99.9054 211.136 98.128ZM224.094 98.159C224.094 96.8364 223.722 95.7927 222.978 95.028C222.254 94.2634 221.366 93.881 220.312 93.881C219.258 93.881 218.359 94.2634 217.615 95.028C216.891 95.772 216.53 96.8054 216.53 98.128C216.53 99.4507 216.891 100.505 217.615 101.29C218.359 102.055 219.258 102.437 220.312 102.437C221.366 102.437 222.254 102.055 222.978 101.29C223.722 100.525 224.094 99.4817 224.094 98.159Z" fill="#414549"/>
<path d="M243.77 89.324C245.795 89.324 247.407 89.9854 248.606 91.308C249.825 92.61 250.435 94.408 250.435 96.702V106.808H245.165V97.415C245.165 96.2577 244.865 95.3587 244.266 94.718C243.666 94.0774 242.86 93.757 241.848 93.757C240.835 93.757 240.029 94.0774 239.43 94.718C238.83 95.3587 238.531 96.2577 238.531 97.415V106.808H233.23V89.51H238.531V91.804C239.068 91.0394 239.791 90.44 240.701 90.006C241.61 89.5514 242.633 89.324 243.77 89.324Z" fill="#414549"/>
<path d="M270.98 107.025C268.934 107.025 267.053 106.55 265.338 105.599C263.643 104.648 262.289 103.326 261.277 101.631C260.285 99.9157 259.789 97.9937 259.789 95.865C259.789 93.7364 260.285 91.8247 261.277 90.13C262.289 88.4354 263.643 87.1127 265.338 86.162C267.053 85.2114 268.934 84.736 270.98 84.736C273.026 84.736 274.896 85.2114 276.591 86.162C278.306 87.1127 279.649 88.4354 280.621 90.13C281.613 91.8247 282.109 93.7364 282.109 95.865C282.109 97.9937 281.613 99.9157 280.621 101.631C279.629 103.326 278.285 104.648 276.591 105.599C274.896 106.55 273.026 107.025 270.98 107.025ZM270.98 102.189C272.716 102.189 274.1 101.61 275.134 100.453C276.188 99.2957 276.715 97.7664 276.715 95.865C276.715 93.943 276.188 92.4137 275.134 91.277C274.1 90.1197 272.716 89.541 270.98 89.541C269.223 89.541 267.818 90.1094 266.764 91.246C265.73 92.3827 265.214 93.9224 265.214 95.865C265.214 97.787 265.73 99.3267 266.764 100.484C267.818 101.621 269.223 102.189 270.98 102.189Z" fill="#414549"/>
<path d="M290.359 92.393C290.979 91.4424 291.754 90.6984 292.684 90.161C293.614 89.603 294.647 89.324 295.784 89.324V94.935H294.327C293.004 94.935 292.012 95.2244 291.351 95.803C290.689 96.361 290.359 97.353 290.359 98.779V106.808H285.058V89.51H290.359V92.393Z" fill="#414549"/>
<path d="M300.984 87.712C300.054 87.712 299.289 87.4434 298.69 86.906C298.111 86.348 297.822 85.666 297.822 84.86C297.822 84.0334 298.111 83.3514 298.69 82.814C299.289 82.256 300.054 81.977 300.984 81.977C301.893 81.977 302.637 82.256 303.216 82.814C303.815 83.3514 304.115 84.0334 304.115 84.86C304.115 85.666 303.815 86.348 303.216 86.906C302.637 87.4434 301.893 87.712 300.984 87.712ZM303.619 89.51V106.808H298.318V89.51H303.619Z" fill="#414549"/>
<path d="M314.032 89.262C315.252 89.262 316.316 89.51 317.225 90.006C318.155 90.502 318.868 91.153 319.364 91.959V89.51H324.665V106.777C324.665 108.368 324.345 109.805 323.704 111.086C323.084 112.388 322.123 113.421 320.821 114.186C319.54 114.951 317.938 115.333 316.016 115.333C313.454 115.333 311.377 114.723 309.785 113.504C308.194 112.305 307.285 110.673 307.057 108.606H312.296C312.462 109.267 312.854 109.784 313.474 110.156C314.094 110.549 314.859 110.745 315.768 110.745C316.864 110.745 317.732 110.425 318.372 109.784C319.034 109.164 319.364 108.162 319.364 106.777V104.328C318.848 105.134 318.135 105.795 317.225 106.312C316.316 106.808 315.252 107.056 314.032 107.056C312.606 107.056 311.315 106.694 310.157 105.971C309 105.227 308.08 104.183 307.398 102.84C306.737 101.476 306.406 99.9054 306.406 98.128C306.406 96.3507 306.737 94.7904 307.398 93.447C308.08 92.1037 309 91.0704 310.157 90.347C311.315 89.6237 312.606 89.262 314.032 89.262ZM319.364 98.159C319.364 96.8364 318.992 95.7927 318.248 95.028C317.525 94.2634 316.636 93.881 315.582 93.881C314.528 93.881 313.629 94.2634 312.885 95.028C312.162 95.772 311.8 96.8054 311.8 98.128C311.8 99.4507 312.162 100.505 312.885 101.29C313.629 102.055 314.528 102.437 315.582 102.437C316.636 102.437 317.525 102.055 318.248 101.29C318.992 100.525 319.364 99.4817 319.364 98.159Z" fill="#414549"/>
<path d="M331.166 87.712C330.236 87.712 329.472 87.4434 328.872 86.906C328.294 86.348 328.004 85.666 328.004 84.86C328.004 84.0334 328.294 83.3514 328.872 82.814C329.472 82.256 330.236 81.977 331.166 81.977C332.076 81.977 332.82 82.256 333.398 82.814C333.998 83.3514 334.297 84.0334 334.297 84.86C334.297 85.666 333.998 86.348 333.398 86.906C332.82 87.4434 332.076 87.712 331.166 87.712ZM333.801 89.51V106.808H328.5V89.51H333.801Z" fill="#414549"/>
<path d="M348.183 89.324C350.208 89.324 351.82 89.9854 353.019 91.308C354.238 92.61 354.848 94.408 354.848 96.702V106.808H349.578V97.415C349.578 96.2577 349.278 95.3587 348.679 94.718C348.079 94.0774 347.273 93.757 346.261 93.757C345.248 93.757 344.442 94.0774 343.843 94.718C343.243 95.3587 342.944 96.2577 342.944 97.415V106.808H337.643V89.51H342.944V91.804C343.481 91.0394 344.204 90.44 345.114 90.006C346.023 89.5514 347.046 89.324 348.183 89.324Z" fill="#414549"/>
<path d="M357.477 98.128C357.477 96.3507 357.808 94.7904 358.469 93.447C359.151 92.1037 360.071 91.0704 361.228 90.347C362.386 89.6237 363.677 89.262 365.103 89.262C366.323 89.262 367.387 89.51 368.296 90.006C369.226 90.502 369.939 91.153 370.435 91.959V89.51H375.736V106.808H370.435V104.359C369.919 105.165 369.195 105.816 368.265 106.312C367.356 106.808 366.292 107.056 365.072 107.056C363.667 107.056 362.386 106.694 361.228 105.971C360.071 105.227 359.151 104.183 358.469 102.84C357.808 101.476 357.477 99.9054 357.477 98.128ZM370.435 98.159C370.435 96.8364 370.063 95.7927 369.319 95.028C368.596 94.2634 367.707 93.881 366.653 93.881C365.599 93.881 364.7 94.2634 363.956 95.028C363.233 95.772 362.871 96.8054 362.871 98.128C362.871 99.4507 363.233 100.505 363.956 101.29C364.7 102.055 365.599 102.437 366.653 102.437C367.707 102.437 368.596 102.055 369.319 101.29C370.063 100.525 370.435 99.4817 370.435 98.159Z" fill="#414549"/>
<path d="M384.873 83.868V106.808H379.572V83.868H384.873Z" fill="#414549"/>
<path d="M25.2228 57.583C25.2229 56.9056 25.3568 56.2348 25.6169 55.6093C25.877 54.9837 26.258 54.4157 26.7382 53.9378C27.2184 53.4599 27.7883 53.0816 28.4151 52.8246C29.0419 52.5676 29.7133 52.4369 30.3908 52.44L38.9588 52.468C40.3249 52.468 41.6351 53.0107 42.6011 53.9767C43.5671 54.9427 44.1098 56.2529 44.1098 57.619V90.0191C45.0748 89.7331 46.3098 89.428 47.6688 89.108C48.6103 88.8865 49.4494 88.3535 50.05 87.5953C50.6506 86.8371 50.9776 85.8983 50.9778 84.931V44.744C50.9778 43.3778 51.5204 42.0675 52.4864 41.1014C53.4524 40.1352 54.7626 39.5923 56.1288 39.592H64.7228C66.089 39.5923 67.3992 40.1352 68.3651 41.1014C69.3311 42.0675 69.8738 43.3778 69.8738 44.744V82.044C69.8738 82.044 72.0238 81.174 74.1168 80.29C74.8945 79.9611 75.5582 79.4104 76.025 78.7067C76.4918 78.003 76.7411 77.1775 76.7418 76.333V31.866C76.7418 30.5001 77.2843 29.1901 78.2501 28.2241C79.2159 27.2581 80.5258 26.7153 81.8918 26.715H90.4768C91.842 26.7164 93.1509 27.2596 94.1158 28.2255C95.0808 29.1914 95.6228 30.5008 95.6228 31.866V68.483C103.066 63.089 110.609 56.601 116.595 48.8C117.463 47.6677 118.038 46.338 118.268 44.9295C118.497 43.521 118.375 42.0776 117.911 40.728C115.14 32.7562 110.735 25.4505 104.979 19.2786C99.2225 13.1067 92.241 8.20438 84.4813 4.88543C76.7216 1.56649 68.3544 -0.0960273 59.9153 0.00428347C51.4762 0.104594 43.1509 1.96552 35.4723 5.46797C27.7936 8.97042 20.9307 14.0373 15.3226 20.3443C9.71457 26.6513 5.48488 34.0596 2.90423 42.0951C0.323578 50.1305 -0.551199 58.6163 0.33587 67.0093C1.22294 75.4022 3.85232 83.5176 8.05576 90.836C8.7881 92.0985 9.86553 93.1258 11.1615 93.7972C12.4574 94.4685 13.918 94.7561 15.3718 94.626C16.9958 94.483 19.0178 94.281 21.4218 93.999C22.468 93.88 23.434 93.3803 24.1356 92.5951C24.8373 91.8099 25.2257 90.7941 25.2268 89.741V57.583" fill="#12161C"/>
<path d="M25.0391 109.544C34.0883 116.127 44.7823 120.079 55.9379 120.961C67.0934 121.844 78.2758 119.623 88.2476 114.545C98.2195 109.467 106.592 101.729 112.439 92.1878C118.286 82.6465 121.38 71.6735 121.378 60.4831C121.378 59.0831 121.313 57.7051 121.22 56.3311C99.057 89.3861 58.1351 104.839 25.0391 109.544Z" fill="#D64F49"/>
</svg>
